<?xml version='1.0' encoding='UTF-8'?>
<!-- Created with Inkscape (http://www.inkscape.org/) -->
<!--
WARNING: AUTO-GENERATED FILE - START
=============================================================================
Generated from source_templates/hand_drawn_ellipse.svg by generation_scripts/generate_images.py
DO NOT EDIT THIS FILE DIRECTLY
IT WILL BE OVERWRITTEN ON NEXT GENERATION
=============================================================================
WARNING: AUTO-GENERATED FILE - END
-->
<svg xmlns:inkscape="http://www.inkscape.org/namespaces/inkscape" xmlns:sodipodi="http://sodipodi.sourceforge.net/DTD/sodipodi-0.dtd" xmlns="http://www.w3.org/2000/svg" xmlns:svg="http://www.w3.org/2000/svg" xmlns:rdf="http://www.w3.org/1999/02/22-rdf-syntax-ns#" xmlns:cc="http://creativecommons.org/ns#" width="200mm" height="120mm" viewBox="0 0 200 120" version="1.1" id="svg1" inkscape:version="1.4.2 (ebf0e94, 2025-05-08)" sodipodi:docname="hand_drawn_ellipse.svg">
  <rect width="100%" height="100%" fill="#606060" style="opacity:1" id="background"/>
  <sodipodi:namedview id="namedview1" pagecolor="#ffffff" bordercolor="#000000" borderopacity="0.25" inkscape:showpageshadow="2" inkscape:pageopacity="0.0" inkscape:pagecheckerboard="true" inkscape:deskcolor="#d1d1d1" inkscape:document-units="mm" inkscape:zoom="0.5" inkscape:cx="378" inkscape:cy="393" inkscape:window-width="2400" inkscape:window-height="1261" inkscape:window-x="3591" inkscape:window-y="-9" inkscape:window-maximized="1" inkscape:current-layer="svg1"/>
  <defs id="defs1">
    <inkscape:path-effect effect="roughen" id="path-effect3" is_visible="true" lpeversion="1.2" global_randomize="1;1" displace_x="1.70126;1" displace_y="1.14997;1" method="size" max_segment_size="3.44992" segments="2" handles="along" shift_nodes="true" fixed_displacement="false" spray_tool_friendly="false"/>
    <inkscape:path-effect effect="roughen" id="path-effect2" is_visible="true" lpeversion="1.2" global_randomize="1.9;1" displace_x="1.56779;1" displace_y="1.1;1" method="size" max_segment_size="3.04953" segments="2" handles="along" shift_nodes="true" fixed_displacement="false" spray_tool_friendly="false"/>
    <inkscape:path-effect effect="offset" id="path-effect1" is_visible="true" lpeversion="1.3" linejoin_type="miter" unit="mm" offset="-6.3468055" miter_limit="4" attempt_force_join="false" update_on_knot_move="true"/>
    <inkscape:path-effect effect="fillet_chamfer" id="path-effect46" is_visible="true" lpeversion="1" nodesatellites_param="IC,0,0,1,0,2.6458333,0,1 @ IC,0,0,1,0,2.6458333,0,1 @ IC,0,0,1,0,2.6458333,0,1 @ IC,0,0,1,0,2.6458333,0,1 @ IC,0,0,1,0,2.6458333,0,1 @ IC,0,0,1,0,2.6458333,0,1 @ IC,0,0,1,0,2.6458333,0,1 @ IC,0,0,1,0,2.6458333,0,1 @ IC,0,0,1,0,2.6458333,0,1 @ IC,0,0,1,0,2.6458333,0,1 @ IC,0,0,1,0,2.6458333,0,1 @ IC,0,0,1,0,2.6458333,0,1 @ IC,0,0,1,0,2.6458333,0,1 @ IC,0,0,1,0,2.6458333,0,1 @ IC,0,0,1,0,2.6458333,0,1 @ IC,0,0,1,0,2.6458333,0,1 @ IC,0,0,1,0,2.6458333,0,1 @ IC,0,0,1,0,2.6458333,0,1 @ IC,0,0,1,0,2.6458333,0,1 @ IC,0,0,1,0,2.6458333,0,1 @ IC,0,0,1,0,2.6458333,0,1 @ IC,0,0,1,0,2.6458333,0,1 @ IC,0,0,1,0,2.6458333,0,1 @ IC,0,0,1,0,2.6458333,0,1 @ IC,0,0,1,0,2.6458333,0,1 @ IC,0,0,1,0,2.6458333,0,1 @ IC,0,0,1,0,2.6458333,0,1 @ IC,0,0,1,0,2.6458333,0,1 @ IC,0,0,1,0,2.6458333,0,1" radius="10" unit="px" method="auto" mode="F" chamfer_steps="1" flexible="false" use_knot_distance="true" apply_no_radius="true" apply_with_radius="true" only_selected="false" hide_knots="false"/>
    <inkscape:path-effect effect="offset" id="path-effect45" is_visible="true" lpeversion="1.3" linejoin_type="round" unit="mm" offset="-5.1" miter_limit="4" attempt_force_join="false" update_on_knot_move="true"/>
    <inkscape:path-effect effect="offset" id="path-effect1-4" is_visible="true" lpeversion="1.3" linejoin_type="miter" unit="mm" offset="-6.3468055" miter_limit="4" attempt_force_join="false" update_on_knot_move="true"/>
    <inkscape:path-effect effect="roughen" id="path-effect2-3" is_visible="true" lpeversion="1.2" global_randomize="1;1" displace_x="1.56779;1" displace_y="1.01651;1" method="size" max_segment_size="3.04953" segments="2" handles="along" shift_nodes="true" fixed_displacement="false" spray_tool_friendly="false"/>
  </defs>
  <g inkscape:label="Cut" inkscape:groupmode="layer" id="layer1" sodipodi:insensitive="true">
    <path style="fill:#e9ddaf;stroke:none;stroke-width:0.4" id="path1-5" inkscape:path-effect="#path-effect3" sodipodi:type="arc" sodipodi:cx="150" sodipodi:cy="100" sodipodi:rx="127.59447" sodipodi:ry="86.247879" d="m 277.55335,99.284287 c 0,0.952663 -0.30254,2.304503 -0.34789,3.249723 -0.37063,0.72562 0.85914,2.2016 0.75577,3.23087 0.89169,1.06596 -0.44688,1.62428 -0.58548,2.55295 -0.38584,0.75683 -0.53789,1.83076 -0.73823,2.82322 -0.40679,0.79031 -0.42822,1.90109 -0.66832,2.85099 -0.24768,0.89757 -0.21734,1.91748 -0.48955,2.81908 -0.006,0.99544 -0.87392,1.44513 -1.18522,2.3307 -0.64747,0.61173 -0.19129,2.03444 -0.57235,2.97555 0.13797,1.03319 -0.7453,1.79352 -1.15106,2.68081 -0.39257,0.86807 -0.54377,1.82724 -0.97912,2.68219 -0.17304,0.96695 -0.86623,1.73637 -1.34745,2.5908 -0.44028,0.85567 -0.92645,1.69079 -1.44179,2.52494 -0.46996,0.83985 -1.4112,0.99129 -1.96585,1.81448 -0.96945,0.23158 -1.54126,1.40375 -2.19648,2.29489 -0.90523,0.42515 -0.77929,1.66329 -1.42428,2.47701 -0.2155,0.8623 -1.33428,1.70351 -2.0452,2.53493 -0.62422,0.78046 -1.28146,1.53737 -1.96644,2.28665 -0.64694,0.76938 -1.30482,1.53202 -2.02344,2.26873 -0.63884,0.77861 -0.011,1.52722 -0.76607,2.25353 0.4572,1.0083 -2.19382,1.11908 -3.2469,2.04823 -1.05722,-0.002 -1.66619,1.58564 -2.58691,2.34551 -0.7192,0.7288 -1.63763,1.40261 -2.50478,2.07672 -0.80419,0.6947 -0.86005,1.557 -1.7433,2.20479 -0.16623,0.9919 -2.0965,1.41329 -3.16675,2.1444 -0.93877,0.54498 -1.85635,1.20001 -2.8058,1.81093 -0.94667,0.56 -2.0093,1.04343 -2.98223,1.63365 -1.06705,0.41971 -2.11287,0.98923 -3.10022,1.5551 -1.14395,0.38561 -2.01754,0.69545 -3.00747,1.23285 -1.11796,0.16323 -2.19872,1.04969 -3.26858,1.59959 -1.11255,0.44608 -2.0722,1.01258 -3.1094,1.51869 -1.078,0.48771 -2.28057,0.44709 -3.34953,0.94149 -1.27021,-0.0603 -1.26875,1.20447 -2.38517,1.69569 -0.39132,0.78118 -2.44979,1.27784 -3.80984,1.83527 -0.9468,0.60174 -1.9358,1.14525 -3.12622,1.60185 -0.82851,0.6745 -1.5952,0.9997 -2.85976,1.4484 -0.52465,0.56658 -3.17941,0.62214 -4.63858,1.09089 -1.45018,-0.005 -1.94542,0.81923 -3.09044,1.163 -0.97631,0.49274 -2.87462,-0.0531 -4.19237,0.30962 -1.48671,-0.48354 -2.327,0.72033 -3.55117,1.0407 -1.16805,0.39192 -1.88582,0.66786 -3.16749,0.98233 -0.79941,0.36979 -3.15689,0.50903 -4.64173,0.8402 -1.44886,0.079 -1.99114,0.74276 -3.21787,0.99809 -0.96822,0.50217 -3.00388,0.4448 -4.442,0.70786 -1.42928,0.10318 -2.59454,0.40817 -3.86735,0.61777 -1.37193,0.17171 -2.99784,-0.2771 -4.31057,-0.0854 -1.64535,-0.51208 -2.77131,0.0843 -4.0198,0.28174 -1.55404,-0.0905 -2.90163,-0.1433 -4.17443,0.079 -1.63645,-0.3424 -2.73461,0.0884 -4.00443,0.37417 -1.46497,-0.13041 -2.71361,-0.12999 -4.03397,0.20168 -1.31664,0.33074 -2.60966,1.03729 -4.03258,1.03729 -1.40937,0 -2.77944,0.005 -4.17777,-0.0252 -1.37605,-0.0102 -1.47045,0.1087 -2.86854,0.0477 -0.49686,0.10491 -3.12416,-0.11796 -4.9447,-0.25031 -1.01061,-0.0443 -3.25685,-1.25761 -4.79969,-1.40832 -1.41885,-1.13633 -2.57278,-0.29694 -3.83248,-0.44523 -1.3614,-0.19246 -2.34111,-0.16461 -3.65294,-0.34685 -1.12831,-0.0382 -2.90052,-0.44824 -4.31509,-0.67793 -1.33804,-0.24478 -1.88186,-0.29263 -3.15873,-0.52758 -0.83079,-0.14106 -3.02701,-0.57502 -4.53087,-0.89115 -1.26633,-0.2647 -1.81077,-0.43578 -3.07318,-0.7297 -0.7599,-0.23441 -3.01452,-0.74044 -4.49018,-1.12421 -1.25454,-0.34383 -2.68828,-0.92261 -3.89679,-1.26475 -1.36306,-0.5897 -1.82097,-0.51402 -2.922403,-0.84951 -0.928267,-0.27804 -2.533884,-0.75402 -3.844446,-1.1881 -1.099556,-0.33211 -2.176036,-0.68264 -3.376086,-1.11073 -0.991402,-0.30667 -2.064343,-0.69476 -3.287755,-1.1646 -0.861865,-0.28395 -1.662312,-0.79484 -2.915469,-1.3131 -0.501765,-0.37142 -3.04118,-1.71062 -4.394826,-2.31569 -1.224366,-0.96779 -1.764254,-0.78683 -2.682858,-1.21878 -0.99832,-0.45918 -2.406038,-1.32382 -3.477948,-1.85862 -1.1677,-0.75307 -0.931108,-0.84812 -1.851388,-1.33104 -0.331161,-0.56966 -1.607898,-1.09723 -2.843532,-1.79037 -0.334744,-0.45196 -2.476694,-1.76603 -3.691927,-2.49378 -0.903061,-0.89461 -1.89396,-1.17119 -2.779069,-1.72677 -0.992783,-0.64468 -1.245827,-1.09884 -2.122369,-1.67605 -0.496694,-0.64705 -2.116569,-1.45069 -3.123466,-2.15151 -0.915601,-0.67317 -1.734747,-1.97985 -2.567577,-2.58783 -0.761217,-1.31282 -1.382659,-1.03174 -2.089604,-1.56821 -0.791705,-0.61472 -1.378567,-1.18008 -2.201783,-1.83556 -0.579824,-0.59188 -1.863533,-1.66814 -2.719982,-2.38722 -0.825745,-0.85471 -1.593691,-1.41249 -2.290396,-2.0247 -0.859551,-0.80974 -0.437518,-0.96714 -1.10646,-1.58328 2.88e-4,-0.60808 -1.96709,-1.88146 -2.862986,-2.76078 -0.771455,-0.79353 -1.461134,-1.42817 -2.093291,-2.08026 -0.788374,-0.78372 -1.25021,-1.30391 -1.851762,-1.95821 -0.655641,-0.71032 -1.233859,-1.40881 -1.849807,-2.1211 -0.583381,-0.72367 -0.948624,-1.42452 -1.543246,-2.15974 -0.34328,-0.75185 -1.586185,-2.09563 -2.183809,-2.89022 -0.776902,-1.10893 -0.887766,-1.47534 -1.304488,-2.06238 -0.508412,-0.99347 0.0072,-1.1488 -0.448768,-1.83792 0.330369,-0.73634 -1.303295,-2.66575 -1.899293,-3.64106 -0.414693,-1.33562 -0.742387,-1.31092 -1.091065,-1.90903 -0.458396,-0.86881 -0.873137,-1.51823 -1.28066,-2.27302 -0.433917,-0.79891 0.107608,-1.33042 -0.278037,-2.12734 0.46386,-0.73655 -1.103883,-2.12468 -1.569449,-3.15124 -0.485178,-0.88381 0.01724,-1.28707 -0.293821,-2.06592 0.3114,-0.71587 -0.891485,-2.03775 -1.280099,-3.06136 -0.401834,-0.87941 -0.72898,-2.51404 -0.973784,-3.33954 -0.343023,-1.58011 -0.6853,-1.58825 -0.800445,-2.12883 -0.182274,-0.85573 1.1294,-1.23918 1.1294,-2.39108 0,-0.952672 0.684383,-1.728486 0.728898,-2.673765 0.708198,-0.808624 0.275821,-1.877086 0.368776,-2.850645 0.25018,-0.863858 0.511503,-1.807014 0.645226,-2.745236 0.440609,-0.841964 0.45778,-1.742278 0.630614,-2.657798 0.347835,-0.820991 0.404913,-1.817637 0.620068,-2.731223 0.247033,-0.873226 1.298997,-1.646941 1.548932,-2.534211 1.094632,-0.701402 1.31106,-1.52776 1.582229,-2.362041 1.086864,-0.66968 1.473518,-1.632697 1.772829,-2.447504 1.197351,-0.738842 1.852612,-1.373817 2.153319,-2.114969 1.58,-0.595754 0.930809,-1.253773 1.24384,-1.962178 0.702127,-0.648495 0.94612,-1.53435 1.33941,-2.346826 0.596488,-0.70462 0.73058,-1.664783 1.151945,-2.464816 0.35293,-0.849439 0.759807,-1.773357 1.210162,-2.562789 0.341463,-0.947928 1.287637,-1.336103 1.754003,-2.094917 0.874585,-0.581186 1.084327,-1.493153 1.591067,-2.260622 0.626747,-0.7193 0.788189,-2.047516 1.330541,-2.813787 0.249362,-1.207828 0.986683,-1.47023 1.514673,-2.170027 0.544955,-0.818699 1.157284,-1.53836 1.763917,-2.289521 0.602351,-0.775694 1.047867,-1.810187 1.692264,-2.5563 0.434812,-1.026189 1.277607,-1.455024 1.937577,-2.170679 0.685225,-0.74304 1.495246,-1.422475 2.210555,-2.148096 0.82023,-0.665812 1.285083,-1.547652 2.024706,-2.250954 0.610399,-0.838371 1.827951,-1.290953 2.61975,-1.995348 1.048315,-0.527399 1.833666,-1.174814 2.618719,-1.831371 1.089772,-0.492048 2.122555,-1.071564 2.934247,-1.710865 1.313547,-0.376905 1.554419,-1.218944 2.352001,-1.813647 0.867902,-0.658129 2.987011,-1.192576 3.889032,-1.82543 1.87617,-0.35526 1.499347,-0.816818 2.164412,-1.264793 1.084572,-0.509895 1.684291,-1.300858 2.602821,-1.88634 0.844497,-0.716638 1.912025,-1.245381 2.902045,-1.838771 0.95362,-0.615575 1.97627,-1.1792 2.986365,-1.747074 1.003304,-0.576997 2.153659,-1.053426 3.189351,-1.598034 1.136568,-0.463224 2.003436,-1.105066 3.044415,-1.616914 1.027636,-0.572913 2.111782,-1.178235 3.208495,-1.679269 1.045334,-0.634781 1.989714,-1.371767 3.104578,-1.842191 0.933269,-0.868784 2.329515,-0.930416 3.493224,-1.377082 1.1862,-0.426609 2.249392,-0.894847 3.418034,-1.301912 1.142472,-0.448423 2.256734,-1.045655 3.475474,-1.42737 1.08829,-0.616969 2.37939,-0.815167 3.63664,-1.1627 1.16423,-0.411755 3.46488,-0.581868 4.75006,-0.891451 1.91289,-0.141422 1.89887,-0.591624 2.87698,-0.806025 1.23626,-0.414724 3.07375,-0.310382 4.37267,-0.555122 1.65243,0.01655 1.98972,-0.876961 3.14541,-1.071584 1.07395,-0.687766 3.85762,-0.186083 5.27309,-0.3681 2.07222,0.125203 2.04096,-0.240301 3.0302,-0.353414 1.38443,-0.143366 2.67623,-0.294013 4.01116,-0.417988 1.35644,-0.127256 2.78414,-0.227454 4.1617,-0.321746 1.40823,-0.08285 2.68326,-0.178022 4.06138,-0.240384 1.35183,-0.07016 2.90622,-0.01012 4.34055,-0.03874 1.35694,-0.02707 2.62155,-0.119326 4.0765,-0.119326 1.40937,0 2.78185,-1.042022 4.18018,-1.01138 1.39326,-1.026239 2.85492,0.08514 4.26755,0.148578 1.40176,0.0689 2.5067,-0.122144 3.88473,-0.02901 1.21163,-0.162483 3.10467,0.305768 4.56961,0.440845 1.46778,0.209351 3.11317,0.431443 4.41597,0.580464 1.67323,0.31041 2.26241,0.207585 3.43605,0.365583 1.27576,0.110664 2.66069,0.182035 4.02225,0.398039 1.27867,0.01233 2.63729,0.102872 3.98605,0.349942 1.27526,-0.09646 2.51055,0.33278 3.85387,0.612966 1.17077,0.105084 3.291,0.674807 4.64579,0.993293 1.64555,0.342524 2.25415,0.542987 3.33421,0.820411 1.30843,0.335744 2.72538,0.789012 3.94187,1.132306 1.4087,0.464318 3.32885,0.834514 4.45606,1.179964 1.92794,0.446784 1.54081,0.338677 2.40903,0.621653 1.07883,0.213757 2.54809,0.826575 3.81392,1.276958 1.17039,0.394195 2.61327,0.899171 3.78294,1.349345 1.32425,0.455036 2.57406,0.946449 3.63899,1.386063 1.41938,0.515255 3.19257,0.899273 4.17994,1.333932 1.96098,0.398484 2.34083,0.912666 3.10084,1.264509 1.64739,0.617995 2.05001,0.946697 2.87905,1.352374 1.32412,0.624987 2.61734,1.183992 3.55168,1.670947 1.54368,0.6702 1.41753,0.675392 2.2293,1.122755 0.8914,0.422777 2.96791,1.31829 4.05662,1.966247 1.5438,0.545231 1.30249,0.48543 2.09265,0.983943 0.82981,0.230791 2.03927,1.23996 3.13372,1.991864 0.81763,0.496741 2.26176,1.447796 3.25912,2.190573 1.07322,0.652627 2.53886,1.356874 3.37664,2.026693 1.51979,0.613637 1.34067,1.056897 2.02216,1.637021 0.82413,0.672052 1.85691,1.585938 2.69866,2.363758 0.89396,0.792644 1.24819,0.676457 1.99629,1.423506 0.6699,0.186812 1.9128,1.964608 2.82537,2.978185 0.72261,0.806334 1.65872,1.762808 2.34898,2.598408 0.84919,0.892092 1.45255,1.65708 2.04959,2.44098 0.80334,0.901663 0.96709,1.393539 1.52854,2.195795 0.44318,0.7487 1.40385,1.949182 2.01046,2.907404 0.6484,0.903414 1.02213,1.668854 1.51446,2.521581 0.49348,0.873988 1.34537,1.934671 1.8175,2.838082 0.76199,0.957416 1.42812,1.624839 1.81414,2.441089 0.9975,0.840746 0.50227,1.28806 0.85334,2.131133 0.17792,0.677363 0.95766,2.180782 1.34055,3.264291 0.42163,0.944931 0.97006,1.983003 1.24658,2.893128 0.61328,1.026225 0.77658,1.718708 0.99289,2.569306 0.51673,0.94031 1.12353,2.07675 1.30545,2.996152 0.85314,1.093095 0.24063,1.549013 0.34989,2.392479 0.0677,0.862797 0.18612,1.714958 0.25409,2.725927 0.0303,0.728837 0.0908,1.575679 0.11638,2.630782 0.004,0.562919 -0.0195,2.123674 -0.0187,3.253542 -0.0542,0.894221 0.34387,1.980945 0.34429,2.933921 0.34307,1.033448 0.0914,1.919641 0.009,2.817013 -0.0883,0.9613 -0.39157,1.119594 -0.39157,2.042401 z" transform="matrix(0.69973071,0,0,0.57567763,-5.1664292,2.94001)"/>
  </g>
  <g inkscape:groupmode="layer" id="layer2" inkscape:label="Engrave" style="display:inline" sodipodi:insensitive="true">
    <path style="display:inline;fill:none;stroke:#28220B;stroke-width:0.6" id="path1" inkscape:path-effect="#path-effect1;#path-effect2" sodipodi:type="arc" sodipodi:cx="147.42587" sodipodi:cy="97.099022" sodipodi:rx="127.59447" sodipodi:ry="86.247879" d="m 147.47805,20.881132 c -1.14534,0 -2.90071,-0.577586 -4.03792,-0.555844 -1.51781,-0.550462 -0.18283,0.278926 -1.13222,0.31302 0.0203,0.295658 -3.81785,-0.299108 -5.50783,-0.188829 -1.40798,-0.381585 -2.35855,-0.169315 -3.34623,-0.08714 -1.373,-0.224619 -2.02646,0.150871 -3.01854,0.251971 -1.12757,0.08725 -1.72641,0.416097 -2.81344,0.549399 -0.77667,0.333627 -3.02039,-0.302275 -4.24756,-0.123523 -1.48306,-0.48352 -0.98866,0.525442 -1.91582,0.67813 -0.46817,0.466347 -2.68011,0.463417 -4.01166,0.717799 -1.05328,0.205674 -1.64427,0.597146 -2.69344,0.81959 -0.71092,0.432498 -2.29156,0.529071 -3.46015,0.803333 -0.98299,0.262005 -2.00737,0.507299 -3.04411,0.771674 -0.95742,0.271387 -2.70122,-0.687436 -3.72959,-0.404214 -1.5479,-0.973327 -2.35462,-0.214157 -3.26309,0.05758 -1.431143,-0.457821 -1.01721,0.584107 -1.914101,0.876992 -0.42783,0.428911 -2.391967,0.851354 -3.596802,1.287313 -0.923192,0.384257 -1.868294,0.748653 -2.826336,1.122023 -0.888607,0.407249 -1.760801,0.825004 -2.703994,1.218301 -0.807652,0.466479 0.637961,0.901273 -0.302414,1.318286 0.967288,0.792939 -3.464715,0.0029 -5.048677,0.746886 -1.286292,-0.957568 -1.750961,1.006925 -2.723933,1.497379 -0.697517,0.52585 -1.71381,0.977377 -2.609392,1.454202 -0.765074,0.510264 -0.190598,1.348149 -1.034848,1.818559 0.381922,1.060591 -2.299218,1.113362 -3.442384,1.757446 -0.848325,0.307918 -1.634565,0.836083 -2.449725,1.304083 -0.806348,0.374078 -1.789136,0.629371 -2.586533,1.098794 -0.963084,0.160945 -1.859655,0.616437 -2.623343,1.086597 -1.049185,0.148719 -1.592425,0.183468 -2.306653,0.65378 -0.965355,-0.182944 -1.823392,0.990264 -2.620545,1.585437 -0.871256,0.385673 -1.435792,1.021392 -2.098793,1.572135 -0.725952,0.516158 -1.629983,0.09894 -2.262541,0.673648 -1.082331,-0.324879 0.134777,1.863797 -0.551325,2.688577 0.979006,1.148081 -1.140663,1.772245 -2.045192,2.487429 -0.318177,0.779192 -0.800322,1.391067 -1.557578,1.83055 -0.793717,0.460645 -0.679282,0.6366 -1.155979,1.07619 -0.817957,0.754288 -2.189905,0.850794 -2.973397,1.618484 -1.376137,0.124522 -1.040139,1.779456 -1.802827,2.587455 -0.249208,1.037723 -2.066241,0.218712 -2.822069,1.082555 -1.383839,-0.460774 -1.585022,2.179369 -2.408238,3.247169 -0.482848,0.955725 -0.139429,1.727033 -0.747003,2.595697 0.433661,1.037026 -1.809784,1.69101 -2.477267,2.731006 -0.973457,0.525873 -0.327308,2.139406 -0.848573,3.036046 0.268205,1.251661 -1.293747,1.518943 -1.775244,2.402456 -0.768675,0.645037 -1.047087,1.682811 -1.487555,2.574243 -0.54004,0.79339 -1.499986,0.486224 -1.888526,1.372083 -1.165126,-0.110648 -1.3816,1.825418 -1.77324,3.067254 -0.755027,0.49886 -1.135495,1.076936 -1.363721,2.182114 -0.783854,0.165597 -0.616807,1.729915 -0.71692,3.073136 -0.291196,0.347896 -0.224867,0.836303 -0.216464,2.08221 -0.107762,-0.28048 0.02939,2.06616 0.09783,3.578359 0.0088,0.366901 0.170567,2.35663 0.22085,3.489647 0.0502,1.131105 2.381663,2.450238 2.381663,3.077652 0,0.932477 0.97642,1.985837 1.012705,2.909321 0.992416,0.98476 -0.178755,-0.1251 -0.118434,0.72558 -0.152712,-0.3395 0.194794,2.94205 0.397571,4.45362 0.05847,0.84524 0.792825,2.1165 0.953536,3.03006 0.662454,1.04743 0.19495,1.44643 0.351096,2.19965 0.103793,0.83281 1.60367,2.04513 1.826157,2.93773 1.387545,0.94855 0.372332,1.39469 0.557789,2.08405 0.251517,0.86606 1.764161,1.9207 2.019078,2.76968 1.499995,0.90176 0.363576,1.33708 0.573885,2.02119 0.219989,0.84044 0.117684,1.26789 0.407476,2.13902 -0.08896,0.53529 1.423331,2.30052 1.832363,3.33419 0.992966,0.95409 0.785698,1.56902 1.086204,2.2798 0.553571,0.9429 1.137606,1.8625 1.50668,2.65206 0.802413,1.01656 1.440154,1.88655 1.812068,2.61517 1.101276,1.10885 2.249023,1.78473 2.595593,2.44944 1.952024,1.15217 -0.0057,0.46497 0.172985,1.14374 0.203813,0.77412 1.195224,2.65089 2.221131,3.59694 0.595941,0.54955 0.800868,0.57593 1.41981,1.11566 0.374052,0.15892 3.210413,1.5204 4.0236,2.18297 1.927497,0.40841 2.174753,0.91836 2.467603,1.15178 1.855644,0.65634 0.522715,-0.22833 0.786037,-0.0223 0.762766,-0.0462 1.367427,1.03801 2.152082,1.62162 0.57201,0.40193 2.432417,1.15771 3.19332,1.6969 1.429074,0.40753 0.872407,0.5464 1.368304,0.88755 0.654154,0.38106 1.46814,-0.38256 2.248152,0.12989 0.892258,-0.79649 2.028231,1.30505 3.012838,1.92119 0.819933,0.50368 1.984434,1.10415 2.719903,1.5476 1.147024,0.57436 1.04168,0.27847 1.663067,0.64152 0.705025,0.0645 1.502124,0.67111 2.414051,1.18073 0.629261,0.14895 3.493175,1.48525 4.436763,1.98894 1.979929,0.64248 0.483035,0.0916 0.827555,0.27263 0.715856,0.20962 1.561581,0.70955 2.493912,1.17876 0.668519,0.22916 1.895331,0.93779 2.863307,1.40266 0.851933,0.40339 1.820221,0.83088 2.702173,1.2355 0.934266,0.39614 2.229002,0.83666 3.099456,1.21737 1.257673,0.384 0.913917,-0.30201 1.671851,0.0158 0.590475,-0.45817 2.340585,0.42848 3.548397,0.90798 0.96128,-0.15979 3.69689,1.2009 4.71215,1.58847 2.10742,0.57049 0.74353,-1.01912 1.1561,-0.86407 1.0499,-0.90771 2.23659,0.65321 3.37159,1.07705 0.96604,0.17241 1.98182,0.73622 2.98146,1.1035 0.962,0.35092 3.59916,1.1827 4.5773,1.5304 2.10509,0.63276 0.65315,0.104 1.09669,0.25881 0.84735,0.16729 3.38871,1.20571 4.46515,1.56088 1.82073,0.65481 1.02376,0.25893 1.60922,0.44277 0.92164,0.21216 1.91814,-0.95438 2.98684,-0.65621 1.02129,-1.26421 1.96567,0.139 3.2568,0.54046 0.64423,-0.23043 4.34418,0.94494 5.66072,1.36571 2.34394,0.29877 2.09257,0.61772 2.53394,0.76386 1.88713,0.55601 1.63469,0.60475 2.21785,0.79044 1.31857,0.48105 2.40095,0.68035 3.41447,0.79561 0.89397,0.10166 1.70066,0.17259 3.17485,0.17259 1.14534,0 2.34939,0.031 3.48613,0.009 1.17912,0.0205 3.72908,0.20313 4.8365,0.16054 2.13128,0.23273 2.69323,0.22736 3.31977,0.19627 2.08184,0.24718 2.90724,-0.0501 3.54964,-0.0896 2.18978,-0.0175 3.40535,0.14415 3.97534,0.10291 2.61455,0.19205 1.30479,0.26335 1.65888,0.23523 1.5107,0.24323 2.1846,0.0382 3.08569,-0.0505 1.34685,0.0946 1.84819,-0.294 2.81716,-0.41049 1.01131,-0.22554 2.07814,-0.60874 3.18279,-0.76989 0.95003,-0.48754 2.92157,0.0203 4.01627,-0.16756 1.55352,0.21197 1.90965,-0.19533 2.753,-0.35836 1.20116,-0.0863 1.55037,-1.30121 2.52995,-1.51686 0.67367,-1.14841 2.16555,-0.60097 3.25541,-0.87091 0.97518,-0.35216 2.03017,-0.54757 3.0377,-0.82367 0.98857,-0.30279 1.6643,-1.09977 2.65073,-1.3967 0.69573,-0.84896 2.06861,-0.63585 3.08481,-0.9679 0.96658,-0.31584 2.11433,-0.5402 3.05954,-0.87297 1.09614,-0.21833 1.53424,-0.853 2.41828,-1.18724 0.72208,-0.58113 2.46894,-0.48746 3.4327,-0.8782 1.30948,-0.0578 2.12551,-0.35669 2.90865,-0.69554 1.32334,-0.0422 2.51308,-0.26761 3.28271,-0.62603 1.63091,0.10429 1.35279,-0.65899 2.0195,-0.99506 0.86675,-0.45325 3.88253,-0.71258 4.72751,-1.18138 2.46071,0.0102 0.96177,-0.18431 1.27251,-0.36574 1.14649,-0.306 1.39202,-1.15492 2.14879,-1.66176 0.62366,-0.74355 1.58454,-1.18009 2.36276,-1.76797 0.70197,-0.61793 1.47997,-1.174 2.19681,-1.76994 0.68833,-0.59942 1.59583,-1.04764 2.26951,-1.65112 0.85846,-0.45219 1.20895,-1.26167 1.83468,-1.86645 0.54342,-0.68358 1.1573,-1.45644 1.76986,-2.07006 0.49138,-0.81912 0.78603,-1.84396 1.36204,-2.40834 0.20155,-1.25284 1.21501,-1.02472 1.81491,-1.5064 0.71797,-0.49314 1.20877,-1.07056 1.86944,-1.57292 0.56429,-0.55445 1.08551,-1.40011 1.76947,-1.91805 0.63096,-0.4778 1.35128,-0.67998 1.96885,-1.24947 0.81796,-0.75429 3.2622,-1.34698 4.03656,-2.11467 2.18043,-0.35951 0.96865,-1.3016 1.47447,-1.83628 0.63795,-1.00435 2.29012,-1.10495 2.95829,-1.87843 1.53164,-0.33536 0.7311,-2.35238 1.33038,-3.12701 0.0236,-1.56998 2.99685,-1.03068 3.52704,-1.78139 2.34988,-0.22107 1.00851,-1.35306 1.43758,-2.04549 0.63288,-0.88887 1.07895,-1.82517 1.55387,-2.74763 0.47879,-0.93299 1.03477,-1.85261 1.43215,-2.79769 0.51141,-0.91669 0.73386,-1.88855 1.05062,-2.83517 0.30253,-0.95251 0.87307,-1.70576 1.12056,-2.65479 0.53606,-0.80399 0.51638,-1.93665 0.69785,-2.93426 0.21736,-0.91094 0.2557,-3.8124 0.36988,-4.76938 -0.0206,-2.21215 0.0868,-0.56154 0.11727,-0.83825 0.1288,-0.97843 -0.27825,-2.37751 -0.21607,-3.2521 -0.41108,-1.30298 0.41015,-1.41482 0.49993,-2.15181 0.3778,-0.75553 1.00358,-1.54362 1.01482,-2.59063 0.009,-0.84975 -1.03276,-2.219936 -1.03276,-3.240817 0,-0.932477 -0.17833,-2.232664 -0.22878,-3.157457 -0.19652,-1.16868 -0.25648,-2.219065 -0.33641,-3.008288 -0.22264,-1.333392 -0.51367,-1.734779 -0.61329,-2.430086 -0.46929,-1.115081 0.72412,-1.407778 0.57807,-2.178927 0.77034,-0.876798 -0.30036,-2.019433 -0.56973,-3.030257 -0.12045,-0.898435 -0.0667,-1.598719 -0.37825,-2.51437 0.11305,-0.768936 1.09237,-1.722516 0.65678,-2.734384 1.30332,-0.91287 -1.53835,-2.843027 -2.25775,-4.069276 -0.78177,-1.072644 -0.88141,-1.441707 -1.33591,-2.127417 -0.57106,-0.85539 -0.67367,-1.525415 -1.2595,-2.311272 -0.23543,-0.807103 -0.62533,-1.56126 -1.35491,-2.422855 -0.0476,-0.727016 0.47456,-1.710175 -0.40813,-2.616386 1.04754,-0.953464 -0.89989,-1.71343 -2.27443,-2.776442 0.32222,-0.423937 -1.72722,-1.426678 -3.06562,-2.311281 -0.34936,-0.370265 -0.83582,-0.915724 -1.91724,-1.61095 0.15832,-0.269183 -2.93263,-1.884823 -4.20914,-2.666931 -1.11215,-0.681416 -0.41381,-0.858216 -0.96375,-1.365349 -0.59594,-0.549552 -1.75447,-1.986504 -2.3757,-2.52657 -0.92408,-1.217434 -1.14465,-1.046154 -1.52761,-1.367437 -0.8948,-0.819483 -0.66145,-0.834783 -1.17886,-1.249211 -0.38745,-0.586683 -0.0726,-1.090388 -0.84152,-1.666763 0.40553,-0.675049 -2.16881,-1.658795 -3.24043,-2.392102 -0.79257,-0.617722 -1.19167,-0.811493 -1.89699,-1.267255 -0.62929,-0.409065 -2.18368,-2.479864 -3.0282,-2.991002 -0.9774,-1.699743 -0.89869,-0.540746 -1.34558,-0.801299 -0.81559,-0.477676 -1.2326,-0.695057 -2.05499,-1.143593 -0.57858,-0.293276 -1.57183,-0.822414 -2.56001,-1.321231 -0.61421,-0.280834 -2.33106,-1.310692 -3.334,-1.779944 -1.09661,-0.679394 -1.25222,-0.552836 -1.99284,-0.880342 -0.75444,-0.304804 -1.96927,-0.864953 -2.95565,-1.270192 -0.92845,-0.39218 -1.20382,-0.451782 -2.11854,-0.802968 -0.52956,-0.156849 -1.21235,-0.838812 -2.37069,-1.247763 -0.19695,-0.428243 -2.99224,-1.567319 -4.29029,-1.982262 -1.21931,-0.937994 -1.33885,-0.391262 -2.10918,-0.621578 -0.85934,-0.22447 -1.47223,-0.281795 -2.53765,-0.572543 -0.58397,0.0012 -1.93676,-0.598571 -3.17875,-0.905058 -0.66197,-0.236806 -1.136,-0.113081 -2.32728,-0.379401 -0.21013,0.134147 -2.9619,-0.876599 -4.42999,-1.170849 -1.08289,-0.451102 -2.02624,-0.922133 -3.02073,-1.105167 -1.05674,-0.719851 -2.02493,-1.249736 -3.0312,-1.414328 -1.04496,-1.059325 -2.11878,-0.385512 -3.14048,-0.52331 -1.13866,-0.21064 -1.49112,-0.09326 -2.54455,-0.207322 -0.67947,0.03546 -2.27538,-0.14081 -3.58124,-0.24875 -0.88264,0.02236 -2.44806,-1.486001 -3.6522,-1.564542 -1.14073,-1.370474 -1.7401,0.04285 -2.81913,0.01917 -0.83683,0.129482 -2.50671,-0.06021 -3.77025,-0.04748 -1.11551,-0.01789 -2.81371,-0.914535 -3.92588,-0.881007 -1.56891,-0.921049 -2.0546,-0.480789 -2.99671,-0.396763 -1.28022,-0.469984 -2.23783,0.297928 -3.34354,0.49479 -1.07252,0.223741 -2.27948,0.366935 -3.36674,0.577315 -1.15803,0.156313 -2.45212,0.169706 -3.50836,0.33047 -1.12073,0.170578 -1.87813,0.555785 -3.01879,0.555785 z" transform="matrix(0.69973071,0,0,0.57567763,-3.3214757,4.4485127)"/>
  </g>
  <g inkscape:groupmode="layer" id="layer7" inkscape:label="Contents" inkscape:highlight-color="#ff0000"/>
  <metadata id="metadata45">
    <rdf:RDF>
      <cc:Work rdf:about="">
        <cc:license rdf:resource="http://creativecommons.org/publicdomain/zero/1.0/"/>
      </cc:Work>
      <cc:License rdf:about="http://creativecommons.org/publicdomain/zero/1.0/">
        <cc:permits rdf:resource="http://creativecommons.org/ns#Reproduction"/>
        <cc:permits rdf:resource="http://creativecommons.org/ns#Distribution"/>
        <cc:permits rdf:resource="http://creativecommons.org/ns#DerivativeWorks"/>
      </cc:License>
    </rdf:RDF>
  </metadata>
</svg>
