<?xml version='1.0' encoding='UTF-8'?>
<!-- Created with Inkscape (http://www.inkscape.org/) -->
<!--
WARNING: AUTO-GENERATED FILE - START
=============================================================================
Generated from source_templates/hand_drawn_rectangle.svg by generation_scripts/generate_images.py
DO NOT EDIT THIS FILE DIRECTLY
IT WILL BE OVERWRITTEN ON NEXT GENERATION
=============================================================================
WARNING: AUTO-GENERATED FILE - END
-->
<svg xmlns:inkscape="http://www.inkscape.org/namespaces/inkscape" xmlns:sodipodi="http://sodipodi.sourceforge.net/DTD/sodipodi-0.dtd" xmlns="http://www.w3.org/2000/svg" xmlns:svg="http://www.w3.org/2000/svg" xmlns:rdf="http://www.w3.org/1999/02/22-rdf-syntax-ns#" xmlns:cc="http://creativecommons.org/ns#" width="200mm" height="120mm" viewBox="0 0 200 120" version="1.1" id="svg1" inkscape:version="1.4.2 (ebf0e94, 2025-05-08)" sodipodi:docname="hand-drawn-rectangle.svg">
  <rect width="100%" height="100%" fill="#606060" style="opacity:1" id="background"/>
  <sodipodi:namedview id="namedview1" pagecolor="#ffffff" bordercolor="#000000" borderopacity="0.25" inkscape:showpageshadow="2" inkscape:pageopacity="0.0" inkscape:pagecheckerboard="true" inkscape:deskcolor="#d1d1d1" inkscape:document-units="mm" inkscape:zoom="0.48065972" inkscape:cx="566.92913" inkscape:cy="378.64625" inkscape:window-width="1440" inkscape:window-height="830" inkscape:window-x="-6" inkscape:window-y="-6" inkscape:window-maximized="1" inkscape:current-layer="layer1"/>
  <defs id="defs1">
    <inkscape:path-effect effect="offset" id="path-effect3" is_visible="true" lpeversion="1.3" linejoin_type="miter" unit="mm" offset="-6.1026217" miter_limit="4" attempt_force_join="false" update_on_knot_move="true"/>
    <inkscape:path-effect effect="roughen" id="path-effect2" is_visible="true" lpeversion="1.2" global_randomize="1;1" displace_x="1.7736;1" displace_y="1.13999;1" method="size" max_segment_size="3.41998" segments="2" handles="along" shift_nodes="true" fixed_displacement="false" spray_tool_friendly="false"/>
    <inkscape:path-effect effect="knot" id="path-effect1" is_visible="true" lpeversion="1" switcher_size="15" interruption_width="3" prop_to_stroke_width="true" add_stroke_width="inkscape_1.0_and_up" both="false" inverse_width="false" add_other_stroke_width="inkscape_1.0_and_up" crossing_points_vector=""/>
    <inkscape:path-effect effect="fillet_chamfer" id="path-effect46" is_visible="true" lpeversion="1" nodesatellites_param="IC,0,0,1,0,2.6458333,0,1 @ IC,0,0,1,0,2.6458333,0,1 @ IC,0,0,1,0,2.6458333,0,1 @ IC,0,0,1,0,2.6458333,0,1 @ IC,0,0,1,0,2.6458333,0,1 @ IC,0,0,1,0,2.6458333,0,1 @ IC,0,0,1,0,2.6458333,0,1 @ IC,0,0,1,0,2.6458333,0,1 @ IC,0,0,1,0,2.6458333,0,1 @ IC,0,0,1,0,2.6458333,0,1 @ IC,0,0,1,0,2.6458333,0,1 @ IC,0,0,1,0,2.6458333,0,1 @ IC,0,0,1,0,2.6458333,0,1 @ IC,0,0,1,0,2.6458333,0,1 @ IC,0,0,1,0,2.6458333,0,1 @ IC,0,0,1,0,2.6458333,0,1 @ IC,0,0,1,0,2.6458333,0,1 @ IC,0,0,1,0,2.6458333,0,1 @ IC,0,0,1,0,2.6458333,0,1 @ IC,0,0,1,0,2.6458333,0,1 @ IC,0,0,1,0,2.6458333,0,1 @ IC,0,0,1,0,2.6458333,0,1 @ IC,0,0,1,0,2.6458333,0,1 @ IC,0,0,1,0,2.6458333,0,1 @ IC,0,0,1,0,2.6458333,0,1 @ IC,0,0,1,0,2.6458333,0,1 @ IC,0,0,1,0,2.6458333,0,1 @ IC,0,0,1,0,2.6458333,0,1 @ IC,0,0,1,0,2.6458333,0,1" radius="10" unit="px" method="auto" mode="F" chamfer_steps="1" flexible="false" use_knot_distance="true" apply_no_radius="true" apply_with_radius="true" only_selected="false" hide_knots="false"/>
    <inkscape:path-effect effect="offset" id="path-effect45" is_visible="true" lpeversion="1.3" linejoin_type="round" unit="mm" offset="-5.1" miter_limit="4" attempt_force_join="false" update_on_knot_move="true"/>
    <inkscape:path-effect effect="roughen" id="path-effect2-4" is_visible="true" lpeversion="1.2" global_randomize="1;1" displace_x="1.7736;1" displace_y="1.13999;1" method="size" max_segment_size="3.41998" segments="2" handles="along" shift_nodes="true" fixed_displacement="false" spray_tool_friendly="false"/>
  </defs>
  <g inkscape:label="Cut" inkscape:groupmode="layer" id="layer1">
    <path style="fill:#e9ddaf;stroke:none;stroke-width:0.4" id="rect1" width="266.0401" height="170.99904" x="18.708866" y="14.592916" sodipodi:type="rect" inkscape:path-effect="#path-effect2" d="m 18.580588,14.447842 3.204604,-0.165147 4.773293,0.132271 2.136541,-0.241885 3.435468,-0.161899 3.615413,-0.005 3.704555,0.107144 2.808885,-0.331958 4.261539,0.145896 2.890487,0.0098 3.686723,0.108854 3.168679,0.01626 3.421265,0.01131 2.988121,-0.661334 3.479819,-0.378158 4.200165,0.04228 2.964616,0.03854 3.422291,0.04227 3.456956,0.06057 4.835144,0.07435 1.71376,-0.760425 3.72804,0.0768 3.3397,0.06491 4.256846,0.269992 2.487782,-0.06003 3.42966,-0.01516 3.30304,-0.128986 3.33891,-0.129613 3.52282,-0.359147 3.39569,-0.02712 3.4818,0.0265 3.26052,-0.512933 4.58249,0.26088 2.65762,0.163834 3.60296,0.249445 3.90849,0.10739 2.1405,-0.327176 4.08791,0.167389 2.78791,-0.759426 3.83137,0.142254 3.98611,0.08453 2.48399,-0.131381 4.1245,0.290647 2.76578,-0.06413 3.52277,0.03659 3.08393,-0.612472 3.58024,-0.184787 3.3611,-0.454503 3.63903,-0.291772 3.49177,-0.6882018 3.5226,-0.2113614 3.49957,0.2048576 4.76475,0.3622106 2.55988,0.171469 2.67273,-0.8581631 3.62704,0.1967217 3.75444,0.3791967 3.01597,0.1555377 4.17328,0.354058 2.67566,0.166848 4.15453,0.320212 2.59012,0.132219 3.1749,-0.06394 4.10686,0.366618 3.08843,0.258342 3.52912,0.338042 3.55276,0.38899 3.86479,0.359358 2.1651,-0.421009 3.85958,0.302763 3.05172,-0.07054 4.64397,0.366629 3.36323,0.421466 2.42196,-0.195183 3.33763,0.210432 4.05632,0.348832 2.76083,0.181572 3.41438,-0.423459 3.47314,1.152682 0.31692,3.46411 -0.11933,2.991843 -0.18046,3.401372 0.973,3.802737 -0.14196,2.959087 -0.18943,3.36357 -0.0265,3.479413 0.0297,3.361113 0.28514,3.381691 -0.37558,2.805289 -0.0386,3.56545 0.99293,3.880273 -0.0869,2.415937 -0.0639,3.969399 -0.0442,3.456997 0.94799,3.612915 -0.20556,3.007811 0.66275,3.710871 -0.17839,3.062276 -0.22742,2.534237 -0.43393,3.893663 1.04025,3.747588 0.58755,3.49676 0.0432,3.305539 0.19041,3.359616 0.0366,3.392572 -0.11293,3.28416 0.73871,3.46591 0.66194,3.44723 0.73071,3.30367 1.05397,3.58489 -0.006,3.62198 -0.14141,3.32329 -0.44203,3.20567 -0.47778,3.16553 0.031,3.65851 -0.26426,3.26669 -0.66344,2.78226 -0.45971,3.67411 -0.39278,3.33962 -0.57985,3.02895 -0.3758,3.55678 -0.236,3.37 -0.51891,3.1697 -0.0468,3.54113 -0.0674,3.39359 0.11282,3.44277 -0.60125,3.19355 0.67588,3.34658 -1.14782,3.56052 -1.45065,2.72178 -3.44337,-0.0228 -3.38368,-0.007 -3.27705,0.0733 -3.57872,-0.0446 -3.40931,-0.13434 -3.57392,-0.383 -3.15333,0.0197 -3.50519,-0.0249 -3.50356,-0.22191 -3.35946,-0.0528 -2.33483,0.10469 -4.439,-0.11703 -2.8397,0.24531 -4.25783,-0.43803 -1.97158,0.26796 -4.47659,0.0277 -3.45118,0.0119 -3.33793,0.0218 -3.48648,0.005 -3.23533,0.10787 -3.54827,0.0282 -3.4694,-1.0371 -3.37651,0.036 -3.7002,-0.23043 -2.9754,0.11905 -3.05686,0.20774 -4.02118,-0.0404 -3.39461,-0.17262 -3.4116,-0.30876 -3.53866,-0.13901 -2.6257,0.12766 -3.90509,0.0695 -3.20914,0.18447 -2.58786,0.21906 -4.71958,-0.15806 -3.21516,0.008 -3.13726,0.0778 -3.22638,0.14198 -2.59788,0.10017 -3.81082,0.27318 -3.85858,0.19157 -3.04551,0.26281 -4.39487,-0.17435 -2.40291,0.0833 -4.49599,-0.45831 -3.32321,-0.18236 -2.97104,0.0448 -2.77185,0.0944 -4.31824,-0.0285 -3.23474,0.10909 -3.83803,-0.73736 -3.12327,0.06 -3.17311,0.19726 -3.41463,0.18645 -3.837468,-0.11886 -3.07097,0.13213 -3.548236,0.0569 -3.033294,0.21832 -3.12829,0.0746 -4.311529,-0.30897 -3.039146,0.1224 -3.142174,0.26106 -3.475363,0.10037 -2.988409,0.3149 -4.180307,-0.0841 -3.387717,-0.23762 -3.401089,-0.40736 -3.468923,0.0876 -2.99279,0.22244 -3.576745,0.19526 -3.621726,-0.59513 -3.179236,0.29692 -3.633212,0.19077 -3.749425,-0.32182 -3.182489,-0.006 -3.325451,0.451 -3.416165,0.40216 -3.494141,0.32174 0.03471,-3.33944 0.07177,-3.34604 0.06825,-3.35602 0.122932,-3.33128 0.601588,-3.14083 -0.04438,-3.89465 -0.05014,-3.07198 0.07702,-3.28103 -0.253261,-3.59065 -0.02079,-3.15945 0.0741,-3.29878 -0.174467,-3.64635 0.08518,-3.06455 -0.0071,-3.38206 -0.185924,-3.5065 -0.01743,-3.20303 0.102904,-3.27727 -0.0183,-3.42213 0.266816,-3.32688 0.994049,-3.31455 0.730123,-3.34674 0.610286,-3.2101 -0.0294,-3.59299 -0.141922,-3.70816 0.926479,-2.80658 -0.306134,-4.325709 0.402395,-2.430355 0.931055,-3.571378 -0.05472,-3.408467 0.09217,-3.403315 -0.218396,-3.399412 -0.247525,-3.847883 1.479972,-2.800975 -0.573393,-3.85495 0.237667,-2.851351 -0.458524,-3.687264 -0.339905,-3.235309 -0.134479,-3.224018 -0.252917,-3.406654 0.885514,-3.339433 -0.718388,-3.870027 -0.418497,-2.99073 -0.46452,-3.484794 -0.517997,-3.293526 -0.446235,-3.165878 -0.265846,-3.157393 -0.493511,-3.366744 0.06282,-3.22087 0.422108,-3.24826 -1.28458,-3.784839 z" transform="matrix(0.65797469,0,0,0.56600952,-2.0437698,4.8340334)"/>
  </g>
  <metadata id="metadata45">
    <rdf:RDF>
      <cc:Work rdf:about="">
        <cc:license rdf:resource="http://creativecommons.org/publicdomain/zero/1.0/"/>
      </cc:Work>
      <cc:License rdf:about="http://creativecommons.org/publicdomain/zero/1.0/">
        <cc:permits rdf:resource="http://creativecommons.org/ns#Reproduction"/>
        <cc:permits rdf:resource="http://creativecommons.org/ns#Distribution"/>
        <cc:permits rdf:resource="http://creativecommons.org/ns#DerivativeWorks"/>
      </cc:License>
    </rdf:RDF>
  </metadata>
</svg>
