<?xml version='1.0' encoding='UTF-8'?>
<!-- Created with Inkscape (http://www.inkscape.org/) -->
<!--
WARNING: AUTO-GENERATED FILE - START
=============================================================================
Generated from source_templates/hand_drawn_rectangle.svg by generation_scripts/generate_images.py
DO NOT EDIT THIS FILE DIRECTLY
IT WILL BE OVERWRITTEN ON NEXT GENERATION
=============================================================================
WARNING: AUTO-GENERATED FILE - END
-->
<svg xmlns:inkscape="http://www.inkscape.org/namespaces/inkscape" xmlns:sodipodi="http://sodipodi.sourceforge.net/DTD/sodipodi-0.dtd" xmlns="http://www.w3.org/2000/svg" xmlns:svg="http://www.w3.org/2000/svg" xmlns:rdf="http://www.w3.org/1999/02/22-rdf-syntax-ns#" xmlns:cc="http://creativecommons.org/ns#" width="200mm" height="120mm" viewBox="0 0 200 120" version="1.1" id="svg1" inkscape:version="1.4.2 (ebf0e94, 2025-05-08)" sodipodi:docname="hand_drawn_rectangle.svg">
  <rect width="100%" height="100%" fill="#606060" style="opacity:1" id="background"/>
  <sodipodi:namedview id="namedview1" pagecolor="#ffffff" bordercolor="#000000" borderopacity="0.25" inkscape:showpageshadow="2" inkscape:pageopacity="0.0" inkscape:pagecheckerboard="true" inkscape:deskcolor="#d1d1d1" inkscape:document-units="mm" inkscape:zoom="0.48065972" inkscape:cx="567.96937" inkscape:cy="379.68649" inkscape:window-width="1920" inkscape:window-height="1009" inkscape:window-x="2872" inkscape:window-y="-8" inkscape:window-maximized="1" inkscape:current-layer="layer3"/>
  <defs id="defs1">
    <inkscape:path-effect effect="offset" id="path-effect3" is_visible="true" lpeversion="1.3" linejoin_type="miter" unit="mm" offset="-6.1026217" miter_limit="4" attempt_force_join="false" update_on_knot_move="true"/>
    <inkscape:path-effect effect="roughen" id="path-effect2" is_visible="true" lpeversion="1.2" global_randomize="1;1" displace_x="1.7736;1" displace_y="1.13999;1" method="size" max_segment_size="3.41998" segments="2" handles="along" shift_nodes="true" fixed_displacement="false" spray_tool_friendly="false"/>
    <inkscape:path-effect effect="knot" id="path-effect1" is_visible="true" lpeversion="1" switcher_size="15" interruption_width="3" prop_to_stroke_width="true" add_stroke_width="inkscape_1.0_and_up" both="false" inverse_width="false" add_other_stroke_width="inkscape_1.0_and_up" crossing_points_vector=""/>
    <inkscape:path-effect effect="fillet_chamfer" id="path-effect46" is_visible="true" lpeversion="1" nodesatellites_param="IC,0,0,1,0,2.6458333,0,1 @ IC,0,0,1,0,2.6458333,0,1 @ IC,0,0,1,0,2.6458333,0,1 @ IC,0,0,1,0,2.6458333,0,1 @ IC,0,0,1,0,2.6458333,0,1 @ IC,0,0,1,0,2.6458333,0,1 @ IC,0,0,1,0,2.6458333,0,1 @ IC,0,0,1,0,2.6458333,0,1 @ IC,0,0,1,0,2.6458333,0,1 @ IC,0,0,1,0,2.6458333,0,1 @ IC,0,0,1,0,2.6458333,0,1 @ IC,0,0,1,0,2.6458333,0,1 @ IC,0,0,1,0,2.6458333,0,1 @ IC,0,0,1,0,2.6458333,0,1 @ IC,0,0,1,0,2.6458333,0,1 @ IC,0,0,1,0,2.6458333,0,1 @ IC,0,0,1,0,2.6458333,0,1 @ IC,0,0,1,0,2.6458333,0,1 @ IC,0,0,1,0,2.6458333,0,1 @ IC,0,0,1,0,2.6458333,0,1 @ IC,0,0,1,0,2.6458333,0,1 @ IC,0,0,1,0,2.6458333,0,1 @ IC,0,0,1,0,2.6458333,0,1 @ IC,0,0,1,0,2.6458333,0,1 @ IC,0,0,1,0,2.6458333,0,1 @ IC,0,0,1,0,2.6458333,0,1 @ IC,0,0,1,0,2.6458333,0,1 @ IC,0,0,1,0,2.6458333,0,1 @ IC,0,0,1,0,2.6458333,0,1" radius="10" unit="px" method="auto" mode="F" chamfer_steps="1" flexible="false" use_knot_distance="true" apply_no_radius="true" apply_with_radius="true" only_selected="false" hide_knots="false"/>
    <inkscape:path-effect effect="offset" id="path-effect45" is_visible="true" lpeversion="1.3" linejoin_type="round" unit="mm" offset="-5.1" miter_limit="4" attempt_force_join="false" update_on_knot_move="true"/>
    <inkscape:path-effect effect="roughen" id="path-effect2-4" is_visible="true" lpeversion="1.2" global_randomize="1;1" displace_x="1.7736;1" displace_y="1.13999;1" method="size" max_segment_size="3.41998" segments="2" handles="along" shift_nodes="true" fixed_displacement="false" spray_tool_friendly="false"/>
  </defs>
  <g inkscape:label="Cut" inkscape:groupmode="layer" id="layer1" sodipodi:insensitive="true">
    <path style="fill:#e9ddaf;stroke:none;stroke-width:0.655456;stroke-dasharray:none" id="rect1" width="266.0401" height="170.99904" x="18.708866" y="14.592916" sodipodi:type="rect" inkscape:path-effect="#path-effect2" d="m 18.580588,14.447842 3.204604,-0.165147 4.773293,0.132271 2.136541,-0.241885 3.435468,-0.161899 3.615413,-0.005 3.704555,0.107144 2.808885,-0.331958 4.261539,0.145896 2.890487,0.0098 3.686723,0.108854 3.168679,0.01626 3.421265,0.01131 2.988121,-0.661334 3.479819,-0.378158 4.200165,0.04228 2.964616,0.03854 3.422291,0.04227 3.456956,0.06057 4.835144,0.07435 1.71376,-0.760425 3.72804,0.0768 3.3397,0.06491 4.256846,0.269992 2.487782,-0.06003 3.42966,-0.01516 3.30304,-0.128986 3.33891,-0.129613 3.52282,-0.359147 3.39569,-0.02712 3.4818,0.0265 3.26052,-0.512933 4.58249,0.26088 2.65762,0.163834 3.60296,0.249445 3.90849,0.10739 2.1405,-0.327176 4.08791,0.167389 2.78791,-0.759426 3.83137,0.142254 3.98611,0.08453 2.48399,-0.131381 4.1245,0.290647 2.76578,-0.06413 3.52277,0.03659 3.08393,-0.612472 3.58024,-0.184787 3.3611,-0.454503 3.63903,-0.291772 3.49177,-0.6882018 3.5226,-0.2113614 3.49957,0.2048576 4.76475,0.3622106 2.55988,0.171469 2.67273,-0.8581631 3.62704,0.1967217 3.75444,0.3791967 3.01597,0.1555377 4.17328,0.354058 2.67566,0.166848 4.15453,0.320212 2.59012,0.132219 3.1749,-0.06394 4.10686,0.366618 3.08843,0.258342 3.52912,0.338042 3.55276,0.38899 3.86479,0.359358 2.1651,-0.421009 3.85958,0.302763 3.05172,-0.07054 4.64397,0.366629 3.36323,0.421466 2.42196,-0.195183 3.33763,0.210432 4.05632,0.348832 2.76083,0.181572 3.41438,-0.423459 3.47314,1.152682 0.31692,3.46411 -0.11933,2.991843 -0.18046,3.401372 0.973,3.802737 -0.14196,2.959087 -0.18943,3.36357 -0.0265,3.479413 0.0297,3.361113 0.28514,3.381691 -0.37558,2.805289 -0.0386,3.56545 0.99293,3.880273 -0.0869,2.415937 -0.0639,3.969399 -0.0442,3.456997 0.94799,3.612915 -0.20556,3.007811 0.66275,3.710871 -0.17839,3.062276 -0.22742,2.534237 -0.43393,3.893663 1.04025,3.747588 0.58755,3.49676 0.0432,3.305539 0.19041,3.359616 0.0366,3.392572 -0.11293,3.28416 0.73871,3.46591 0.66194,3.44723 0.73071,3.30367 1.05397,3.58489 -0.006,3.62198 -0.14141,3.32329 -0.44203,3.20567 -0.47778,3.16553 0.031,3.65851 -0.26426,3.26669 -0.66344,2.78226 -0.45971,3.67411 -0.39278,3.33962 -0.57985,3.02895 -0.3758,3.55678 -0.236,3.37 -0.51891,3.1697 -0.0468,3.54113 -0.0674,3.39359 0.11282,3.44277 -0.60125,3.19355 0.67588,3.34658 -1.14782,3.56052 -1.45065,2.72178 -3.44337,-0.0228 -3.38368,-0.007 -3.27705,0.0733 -3.57872,-0.0446 -3.40931,-0.13434 -3.57392,-0.383 -3.15333,0.0197 -3.50519,-0.0249 -3.50356,-0.22191 -3.35946,-0.0528 -2.33483,0.10469 -4.439,-0.11703 -2.8397,0.24531 -4.25783,-0.43803 -1.97158,0.26796 -4.47659,0.0277 -3.45118,0.0119 -3.33793,0.0218 -3.48648,0.005 -3.23533,0.10787 -3.54827,0.0282 -3.4694,-1.0371 -3.37651,0.036 -3.7002,-0.23043 -2.9754,0.11905 -3.05686,0.20774 -4.02118,-0.0404 -3.39461,-0.17262 -3.4116,-0.30876 -3.53866,-0.13901 -2.6257,0.12766 -3.90509,0.0695 -3.20914,0.18447 -2.58786,0.21906 -4.71958,-0.15806 -3.21516,0.008 -3.13726,0.0778 -3.22638,0.14198 -2.59788,0.10017 -3.81082,0.27318 -3.85858,0.19157 -3.04551,0.26281 -4.39487,-0.17435 -2.40291,0.0833 -4.49599,-0.45831 -3.32321,-0.18236 -2.97104,0.0448 -2.77185,0.0944 -4.31824,-0.0285 -3.23474,0.10909 -3.83803,-0.73736 -3.12327,0.06 -3.17311,0.19726 -3.41463,0.18645 -3.837468,-0.11886 -3.07097,0.13213 -3.548236,0.0569 -3.033294,0.21832 -3.12829,0.0746 -4.311529,-0.30897 -3.039146,0.1224 -3.142174,0.26106 -3.475363,0.10037 -2.988409,0.3149 -4.180307,-0.0841 -3.387717,-0.23762 -3.401089,-0.40736 -3.468923,0.0876 -2.99279,0.22244 -3.576745,0.19526 -3.621726,-0.59513 -3.179236,0.29692 -3.633212,0.19077 -3.749425,-0.32182 -3.182489,-0.006 -3.325451,0.451 -3.416165,0.40216 -3.494141,0.32174 0.03471,-3.33944 0.07177,-3.34604 0.06825,-3.35602 0.122932,-3.33128 0.601588,-3.14083 -0.04438,-3.89465 -0.05014,-3.07198 0.07702,-3.28103 -0.253261,-3.59065 -0.02079,-3.15945 0.0741,-3.29878 -0.174467,-3.64635 0.08518,-3.06455 -0.0071,-3.38206 -0.185924,-3.5065 -0.01743,-3.20303 0.102904,-3.27727 -0.0183,-3.42213 0.266816,-3.32688 0.994049,-3.31455 0.730123,-3.34674 0.610286,-3.2101 -0.0294,-3.59299 -0.141922,-3.70816 0.926479,-2.80658 -0.306134,-4.325709 0.402395,-2.430355 0.931055,-3.571378 -0.05472,-3.408467 0.09217,-3.403315 -0.218396,-3.399412 -0.247525,-3.847883 1.479972,-2.800975 -0.573393,-3.85495 0.237667,-2.851351 -0.458524,-3.687264 -0.339905,-3.235309 -0.134479,-3.224018 -0.252917,-3.406654 0.885514,-3.339433 -0.718388,-3.870027 -0.418497,-2.99073 -0.46452,-3.484794 -0.517997,-3.293526 -0.446235,-3.165878 -0.265846,-3.157393 -0.493511,-3.366744 0.06282,-3.22087 0.422108,-3.24826 -1.28458,-3.784839 z" transform="matrix(0.65797469,0,0,0.56600952,-2.0270949,4.8343365)"/>
  </g>
  <g inkscape:groupmode="layer" id="layer2" inkscape:label="Engrave" style="display:inline" sodipodi:insensitive="true">
    <path style="display:inline;fill:none;stroke:#28220B;stroke-width:0.6;stroke-dasharray:none" id="rect1-2" width="266.0401" height="170.99904" x="18.708866" y="14.592916" sodipodi:type="rect" inkscape:path-effect="#path-effect2-4;#path-effect3" d="m 204.25195,19.490234 -2.73242,0.878907 -4.51562,-0.302735 -4.73047,-0.361328 -2.80078,-0.164062 -2.26563,0.136718 -3.39648,0.667969 -3.9375,0.316406 -3.50196,0.472657 -3.27148,0.169921 -3.39063,0.671875 -4.38867,-0.04297 -3.06836,0.06836 -3.98047,-0.277344 -2.23437,0.117188 -4.43555,-0.09375 -2.38476,-0.08789 -2.80664,0.763672 -4.66797,-0.191406 -2.07617,0.316406 -5.00977,-0.138672 -3.74023,-0.257812 -2.60938,-0.160157 -3.51367,-0.201171 -3.01563,0.474609 -4.22461,-0.0332 -2.84179,0.02344 -3.37696,0.34375 -3.65234,0.140625 -3.47266,0.136719 -3.45898,0.01563 -2.871094,0.06836 -4.488281,-0.283203 -3.113281,-0.0625 -1.501953,-0.03125 -1.689454,0.751953 -7.052734,-0.111328 -3.410156,-0.05859 -3.427735,-0.04102 -2.972656,-0.03906 -3.576172,-0.03711 -2.33789,0.253906 -3.542969,0.785157 -4.539063,-0.01563 -3.302734,-0.01563 -3.693359,-0.109375 -2.898438,-0.0098 -3.65039,-0.125 -2.785157,0.328125 -4.296875,-0.125 -3.236328,0.0059 -1.6875,0.08008 -0.148437,1.138672 -0.03711,1.841797 0.419922,2.857422 0.267578,3.193359 0.382813,2.72461 0.0078,0.05469 0.527344,3.353516 0.470703,3.533203 0.0098,0.06641 0.378906,2.703125 1.087891,5.871094 -1.03125,3.888672 0.140625,1.890625 0.128906,3.080078 0.294922,2.802734 0.578125,4.638672 -0.228516,2.730469 0.886719,5.953125 -1.693359,3.203125 0.06641,1.027344 0.248047,3.855469 -0.09961,3.65625 0.07422,4.548828 -1.162109,4.453125 -0.134766,0.8125 0.363281,5.121091 -0.980468,2.96875 0.07813,2.04883 0.03906,4.72852 -0.818359,4.30859 -0.841797,3.85352 -0.796875,2.66015 -0.150391,1.85352 0.01953,3.16992 -0.103515,3.30469 0.01367,2.75 0.1875,3.52929 0.0078,3.78516 -0.08008,2.8418 0.173828,3.61523 -0.07813,3.51367 0.01758,2.69336 0.263672,3.73242 -0.08398,3.58399 0.04883,2.86328 0.05664,4.92773 -0.646485,3.38086 -0.03906,1.05664 3.617187,0.006 3.488281,0.29688 2.72461,-0.14063 4.263672,-0.39843 3.8125,0.625 2.46875,-0.13477 3.064453,-0.22656 4.433594,-0.11328 3.90039,0.46679 2.853516,0.19922 3.320312,0.0684 2.744141,-0.28906 3.578125,-0.10547 3.09375,-0.25586 3.8125,-0.1543 4.386719,0.31446 2.423828,-0.0566 3.066406,-0.22071 3.695313,-0.0586 3.302734,-0.14063 3.77344,0.11329 2.99609,-0.16211 3.30664,-0.20508 4.39063,-0.0859 3.76758,0.72461 2.31054,-0.0781 4.32617,0.0273 2.65625,-0.0898 3.41602,-0.0508 3.90625,0.21485 4.05078,0.41211 2.0918,-0.0723 4.13281,0.16406 2.59961,-0.22461 3.94531,-0.19531 3.85352,-0.27734 2.70703,-0.10352 3.32226,-0.14648 3.34571,-0.084 3.50976,-0.008 4.30078,0.14453 2.14258,-0.18164 3.53906,-0.20117 3.93946,-0.0723 2.92383,-0.14062 4.23046,0.16602 3.43555,0.31054 3.04102,0.1543 3.42968,0.0352 2.79102,-0.18946 3.62695,-0.14648 3.83789,0.24023 4.53711,-0.0488 3.48243,1.04102 1.94531,-0.0156 3.24219,-0.10742 3.5957,-0.006 3.35351,-0.0215 3.43946,-0.0117 3.82226,-0.0234 2.52149,-0.34179 4.5,0.46289 2.46093,-0.21289 4.64454,0.12304 2.28711,-0.10156 3.89453,0.0606 3.46289,0.21875 3.22656,0.0234 3.58398,-0.0234 3.80664,0.4082 2.9043,0.11523 3.30274,0.041 1.95898,-0.0449 0.67383,-3.58203 -0.0859,-2.60742 0.0703,-3.58985 0.0566,-4.28906 0.56641,-3.45313 0.2168,-3.08203 0.4375,-4.15039 0.59179,-3.0957 0.35352,-3.00781 0.53125,-4.25782 0.61328,-2.5625 0.16602,-2.07226 -0.0312,-3.99414 0.57617,-3.82813 0.37695,-2.72851 0.11328,-2.67578 0.004,-1.94532 -0.74024,-2.51757 -0.83593,-3.77344 -0.65039,-3.38867 -0.0117,-0.0547 -0.98242,-4.61328 0.14843,-4.27539 -0.0332,-2.955081 -0.1875,-3.341797 -0.0371,-2.759766 -0.37109,-2.210937 -1.41992,-5.109375 0.64257,-5.785157 0.19922,-2.205078 0.0996,-1.71875 -0.67187,-3.761718 0.17773,-2.59961 -0.875,-3.339844 0.0586,-4.828125 0.0664,-4.089843 0.0391,-1.072266 -0.96093,-3.753906 0.0605,-5.494141 0.31055,-2.330078 -0.22461,-2.669922 -0.0332,-3.822265 0.0293,-3.804688 0.20313,-3.605469 0.0645,-1.36914 -0.98047,-3.833985 0.0937,-1.751953 -0.43945,-0.0293 -4.02148,-0.347656 -2.52149,-0.160156 -2.73437,0.220703 -4.17969,-0.521484 -3.87891,-0.306641 -3.05664,0.07031 L 251,22.412109 l -2.23633,0.435547 -5.3789,-0.5 -3.4961,-0.384765 -3.5293,-0.337891 -2.99609,-0.25 -3.59375,-0.320313 -2.98047,0.06055 -3.07617,-0.158203 -4.25195,-0.328125 -2.67188,-0.164062 -4.14844,-0.351563 -3.06835,-0.158203 -3.74024,-0.378906 z" transform="matrix(0.65797469,0,0,0.56600952,-2.1214894,4.8104308)"/>
  </g>
  <g inkscape:groupmode="layer" id="layer3" inkscape:label="Contents"/>
  <metadata id="metadata45">
    <rdf:RDF>
      <cc:Work rdf:about="">
        <cc:license rdf:resource="http://creativecommons.org/publicdomain/zero/1.0/"/>
      </cc:Work>
      <cc:License rdf:about="http://creativecommons.org/publicdomain/zero/1.0/">
        <cc:permits rdf:resource="http://creativecommons.org/ns#Reproduction"/>
        <cc:permits rdf:resource="http://creativecommons.org/ns#Distribution"/>
        <cc:permits rdf:resource="http://creativecommons.org/ns#DerivativeWorks"/>
      </cc:License>
    </rdf:RDF>
  </metadata>
</svg>
