<?xml version='1.0' encoding='UTF-8'?>
<!-- Created with Inkscape (http://www.inkscape.org/) -->
<!--
WARNING: AUTO-GENERATED FILE - START
=============================================================================
Generated from source_templates/symmetric_cloud.svg by generation_scripts/generate_images.py
DO NOT EDIT THIS FILE DIRECTLY
IT WILL BE OVERWRITTEN ON NEXT GENERATION
=============================================================================
WARNING: AUTO-GENERATED FILE - END
-->
<svg xmlns:inkscape="http://www.inkscape.org/namespaces/inkscape" xmlns:sodipodi="http://sodipodi.sourceforge.net/DTD/sodipodi-0.dtd" xmlns="http://www.w3.org/2000/svg" xmlns:svg="http://www.w3.org/2000/svg" xmlns:rdf="http://www.w3.org/1999/02/22-rdf-syntax-ns#" xmlns:cc="http://creativecommons.org/ns#" width="200mm" height="120mm" viewBox="0 0 200 120" version="1.1" id="svg1" inkscape:version="1.4.2 (ebf0e94, 2025-05-08)" sodipodi:docname="symmetric_cloud.svg">
  <rect width="100%" height="100%" fill="#606060" style="opacity:1" id="background"/>
  <sodipodi:namedview id="namedview1" pagecolor="#ffffff" bordercolor="#000000" borderopacity="0.25" inkscape:showpageshadow="2" inkscape:pageopacity="0.0" inkscape:pagecheckerboard="true" inkscape:deskcolor="#d1d1d1" inkscape:document-units="mm" inkscape:zoom="0.70710678" inkscape:cx="506.28846" inkscape:cy="388.20162" inkscape:window-width="1920" inkscape:window-height="1009" inkscape:window-x="2872" inkscape:window-y="-8" inkscape:window-maximized="1" inkscape:current-layer="svg1"/>
  <defs id="defs1">
    <inkscape:path-effect effect="offset" id="path-effect4" is_visible="true" lpeversion="1.3" linejoin_type="miter" unit="mm" offset="-7.3195216" miter_limit="4" attempt_force_join="false" update_on_knot_move="true"/>
    <inkscape:path-effect effect="offset" id="path-effect3" is_visible="true" lpeversion="1.3" linejoin_type="miter" unit="mm" offset="-3.6597608" miter_limit="4" attempt_force_join="false" update_on_knot_move="true"/>
    <inkscape:path-effect effect="offset" id="path-effect2" is_visible="true" lpeversion="1.3" linejoin_type="miter" unit="mm" offset="-6.0996013" miter_limit="4" attempt_force_join="false" update_on_knot_move="true"/>
    <inkscape:path-effect effect="fillet_chamfer" id="path-effect46" is_visible="true" lpeversion="1" nodesatellites_param="IC,0,0,1,0,2.6458333,0,1 @ IC,0,0,1,0,2.6458333,0,1 @ IC,0,0,1,0,2.6458333,0,1 @ IC,0,0,1,0,2.6458333,0,1 @ IC,0,0,1,0,2.6458333,0,1 @ IC,0,0,1,0,2.6458333,0,1 @ IC,0,0,1,0,2.6458333,0,1 @ IC,0,0,1,0,2.6458333,0,1 @ IC,0,0,1,0,2.6458333,0,1 @ IC,0,0,1,0,2.6458333,0,1 @ IC,0,0,1,0,2.6458333,0,1 @ IC,0,0,1,0,2.6458333,0,1 @ IC,0,0,1,0,2.6458333,0,1 @ IC,0,0,1,0,2.6458333,0,1 @ IC,0,0,1,0,2.6458333,0,1 @ IC,0,0,1,0,2.6458333,0,1 @ IC,0,0,1,0,2.6458333,0,1 @ IC,0,0,1,0,2.6458333,0,1 @ IC,0,0,1,0,2.6458333,0,1 @ IC,0,0,1,0,2.6458333,0,1 @ IC,0,0,1,0,2.6458333,0,1 @ IC,0,0,1,0,2.6458333,0,1 @ IC,0,0,1,0,2.6458333,0,1 @ IC,0,0,1,0,2.6458333,0,1 @ IC,0,0,1,0,2.6458333,0,1 @ IC,0,0,1,0,2.6458333,0,1 @ IC,0,0,1,0,2.6458333,0,1 @ IC,0,0,1,0,2.6458333,0,1 @ IC,0,0,1,0,2.6458333,0,1" radius="10" unit="px" method="auto" mode="F" chamfer_steps="1" flexible="false" use_knot_distance="true" apply_no_radius="true" apply_with_radius="true" only_selected="false" hide_knots="false"/>
    <inkscape:path-effect effect="offset" id="path-effect45" is_visible="true" lpeversion="1.3" linejoin_type="round" unit="mm" offset="-5.1" miter_limit="4" attempt_force_join="false" update_on_knot_move="true"/>
  </defs>
  <g inkscape:label="Cut" inkscape:groupmode="layer" id="layer1" sodipodi:insensitive="true">
    <path id="path2" style="fill:#e9ddaf;stroke:none;stroke-width:0.243984;stroke-dasharray:none" d="M 95.717119,14.398011 A 42.027426,49.877981 0 0 0 67.852756,26.936605 42.026419,40.73181 0 0 0 51.061213,23.544277 42.026419,40.73181 0 0 0 9.0347264,64.276021 42.026419,40.73181 0 0 0 51.061213,105.00776 a 42.026419,40.73181 0 0 0 16.791543,-3.39233 42.027426,49.877981 0 0 0 27.864363,12.5386 42.027426,49.877981 0 0 0 29.811371,-14.735957 42.038203,40.731797 0 0 0 21.2239,5.589687 42.038203,40.731797 0 0 0 42.03835,-40.731739 42.038203,40.731797 0 0 0 -42.03835,-40.731744 42.038203,40.731797 0 0 0 -21.2239,5.589384 42.027426,49.877981 0 0 0 -29.811371,-14.73565 z"/>
  </g>
  <g inkscape:groupmode="layer" id="layer2" inkscape:label="Engrave" style="display:inline" sodipodi:insensitive="true">
    <path id="path2-9" style="fill:none;stroke:#28220B;stroke-width:0.6;stroke-dasharray:none" d="m 144.05078,24.486328 c -12.91905,1.9e-5 -25.67261,6.043723 -36.12109,18.056641 l -4.93164,5.669922 -6.820316,-3.152344 C 89.173525,41.824184 81.653657,40.167915 74.054687,40.167969 43.406532,40.167917 18.187552,66.530307 18.1875,100 c 5.5e-5,33.46966 25.219124,59.83208 55.867187,59.83203 7.599059,5e-5 15.118839,-1.65621 22.123047,-4.89258 l 6.820316,-3.15234 4.93164,5.66992 c 10.44848,12.01292 23.20194,18.05662 36.125,18.05664 14.08768,-0.006 27.97725,-7.21168 38.77929,-21.33594 l 5.51758,-7.21484 7.71485,4.79102 c 8.54027,5.30437 18.18249,8.07055 27.99609,8.07812 30.65224,1.1e-4 55.87886,-26.36389 55.87891,-59.83203 -5e-5,-33.468116 -25.22679,-59.832147 -55.88672,-59.832031 -9.80571,0.0074 -19.44776,2.773773 -27.98828,8.078125 l -7.71485,4.791015 -5.51758,-7.214843 C 172.03183,31.698111 158.14231,24.491947 144.05078,24.486328 Z" inkscape:path-effect="#path-effect2" inkscape:original-d="M 144.05529,14.476119 A 65.879623,85.523933 0 0 0 100.37682,35.975582 65.878044,69.841331 0 0 0 74.055428,30.158883 65.878044,69.841331 0 0 0 8.1772786,100.0001 a 65.878044,69.841331 0 0 0 65.8781494,69.84121 65.878044,69.841331 0 0 0 26.321392,-5.8167 65.879623,85.523933 0 0 0 43.67847,21.49947 65.879623,85.523933 0 0 0 46.73048,-25.2672 65.896515,69.841309 0 0 0 33.26929,9.58443 65.896515,69.841309 0 0 0 65.89675,-69.84121 65.896515,69.841309 0 0 0 -65.89675,-69.841217 65.896515,69.841309 0 0 0 -33.26929,9.583911 65.879623,85.523933 0 0 0 -46.73048,-25.266675 z" transform="matrix(0.63794273,0,0,0.58320497,3.2213238,5.9555252)"/>
  </g>
  <g inkscape:groupmode="layer" id="layer3" inkscape:label="Contents"/>
  <metadata id="metadata45">
    <rdf:RDF>
      <cc:Work rdf:about="">
        <cc:license rdf:resource="http://creativecommons.org/publicdomain/zero/1.0/"/>
      </cc:Work>
      <cc:License rdf:about="http://creativecommons.org/publicdomain/zero/1.0/">
        <cc:permits rdf:resource="http://creativecommons.org/ns#Reproduction"/>
        <cc:permits rdf:resource="http://creativecommons.org/ns#Distribution"/>
        <cc:permits rdf:resource="http://creativecommons.org/ns#DerivativeWorks"/>
      </cc:License>
    </rdf:RDF>
  </metadata>
</svg>
