<?xml version="1.0" encoding="UTF-8" standalone="no"?>
<!-- Created with Inkscape (http://www.inkscape.org/) -->

<svg
   width="200mm"
   height="120mm"
   viewBox="0 0 200 120"
   version="1.1"
   id="svg1"
   inkscape:version="1.4.2 (ebf0e94, 2025-05-08)"
   sodipodi:docname="cloud.svg"
   xmlns:inkscape="http://www.inkscape.org/namespaces/inkscape"
   xmlns:sodipodi="http://sodipodi.sourceforge.net/DTD/sodipodi-0.dtd"
   xmlns="http://www.w3.org/2000/svg"
   xmlns:svg="http://www.w3.org/2000/svg"
   xmlns:rdf="http://www.w3.org/1999/02/22-rdf-syntax-ns#"
   xmlns:cc="http://creativecommons.org/ns#">
  <sodipodi:namedview
     id="namedview1"
     pagecolor="#ffffff"
     bordercolor="#000000"
     borderopacity="0.25"
     inkscape:showpageshadow="2"
     inkscape:pageopacity="0.0"
     inkscape:pagecheckerboard="true"
     inkscape:deskcolor="#d1d1d1"
     inkscape:document-units="mm"
     inkscape:zoom="0.72098958"
     inkscape:cx="378.64625"
     inkscape:cy="226.77165"
     inkscape:window-width="1920"
     inkscape:window-height="1009"
     inkscape:window-x="2872"
     inkscape:window-y="-8"
     inkscape:window-maximized="1"
     inkscape:current-layer="layer5" />
  <defs
     id="defs1">
    <inkscape:path-effect
       effect="fillet_chamfer"
       id="path-effect46"
       is_visible="true"
       lpeversion="1"
       nodesatellites_param="IC,0,0,1,0,2.6458333,0,1 @ IC,0,0,1,0,2.6458333,0,1 @ IC,0,0,1,0,2.6458333,0,1 @ IC,0,0,1,0,2.6458333,0,1 @ IC,0,0,1,0,2.6458333,0,1 @ IC,0,0,1,0,2.6458333,0,1 @ IC,0,0,1,0,2.6458333,0,1 @ IC,0,0,1,0,2.6458333,0,1 @ IC,0,0,1,0,2.6458333,0,1 @ IC,0,0,1,0,2.6458333,0,1 @ IC,0,0,1,0,2.6458333,0,1 @ IC,0,0,1,0,2.6458333,0,1 @ IC,0,0,1,0,2.6458333,0,1 @ IC,0,0,1,0,2.6458333,0,1 @ IC,0,0,1,0,2.6458333,0,1 @ IC,0,0,1,0,2.6458333,0,1 @ IC,0,0,1,0,2.6458333,0,1 @ IC,0,0,1,0,2.6458333,0,1 @ IC,0,0,1,0,2.6458333,0,1 @ IC,0,0,1,0,2.6458333,0,1 @ IC,0,0,1,0,2.6458333,0,1 @ IC,0,0,1,0,2.6458333,0,1 @ IC,0,0,1,0,2.6458333,0,1 @ IC,0,0,1,0,2.6458333,0,1 @ IC,0,0,1,0,2.6458333,0,1 @ IC,0,0,1,0,2.6458333,0,1 @ IC,0,0,1,0,2.6458333,0,1 @ IC,0,0,1,0,2.6458333,0,1 @ IC,0,0,1,0,2.6458333,0,1 @ F,0,0,1,0,2.6458333,0,1 @ F,0,0,1,0,2.6458333,0,1 @ F,0,0,1,0,2.6458333,0,1 @ F,0,0,1,0,2.6458333,0,1"
       radius="10"
       unit="px"
       method="auto"
       mode="F"
       chamfer_steps="1"
       flexible="false"
       use_knot_distance="true"
       apply_no_radius="true"
       apply_with_radius="true"
       only_selected="false"
       hide_knots="false" />
    <inkscape:path-effect
       effect="offset"
       id="path-effect45"
       is_visible="true"
       lpeversion="1.3"
       linejoin_type="round"
       unit="mm"
       offset="-3.0325886"
       miter_limit="4"
       attempt_force_join="false"
       update_on_knot_move="true" />
  </defs>
  <g
     inkscape:label="Cut"
     inkscape:groupmode="layer"
     id="layer1"
     sodipodi:insensitive="true">
    <path
       id="rect40"
       style="fill:none;stroke:#000000;stroke-width:0.536327;-inkscape-stroke:none"
       d="M 99.846196,10.272331 A 44.380054,39.213545 14.65843 0 0 93.629391,10.776033 44.380054,39.213545 14.65843 0 0 61.269498,36.01532 22.740526,26.271904 59.379083 0 0 30.146487,43.73019 22.740526,26.271904 59.379083 0 0 23.410359,63.901901 16.993441,17.999887 0 0 0 10.268165,81.403894 16.993441,17.999887 0 0 0 26.114798,99.32444 v 0.07946 h 1.146989 39.346693 a 33.625316,12.835985 0 0 0 32.903664,10.32794 33.625316,12.835985 0 0 0 32.903686,-10.327938 h 39.04709 v -0.08843 a 16.993441,17.999887 0 0 0 1.2753,0.08843 A 16.993441,17.999887 0 0 0 189.73184,81.403894 16.993441,17.999887 0 0 0 175.89357,63.718111 38.082444,26.965763 12.814444 0 0 167.19952,32.326805 38.082444,26.965763 12.814444 0 0 132.23806,21.7454 44.380054,39.213545 14.65843 0 0 99.846196,10.272331 Z"
       inkscape:label="cloud" />
  </g>
  <g
     inkscape:groupmode="layer"
     id="layer2"
     inkscape:label="Engrave"
     sodipodi:insensitive="true">
    <path
       id="rect40-1"
       style="fill:none;stroke:#ff0000;stroke-width:0.901958;-inkscape-stroke:none"
       d="m 146.72577,15.765194 c -1.21756,0.07716 -2.43026,0.191481 -3.63614,0.342744 l -2.62479,0.390109 C 117.8233,21.449805 101.77746,36.008094 94.878699,56.204234 l -2.164375,4.755212 c -0.872442,0.834673 -2.020651,1.337738 -3.225694,1.413274 L 84.496699,60.806618 C 72.175967,56.154864 57.064717,60.424263 46.399105,72.402342 c -1.713558,2.039064 -1.713558,2.039064 -1.713558,2.039064 l -0.002,0.002 C 37.311024,84.926777 34.42397,95.033176 35.000973,104.59299 l -0.08984,5.22773 c -0.249439,0.6078 -0.6141,1.16288 -1.072888,1.63314 l -4.722694,2.26567 c -7.49162,3.46212 -13.359159,12.40084 -14.201158,23.28183 l -0.103842,2.65098 c 1.056802,15.14583 8.506281,24.76581 17.402717,26.99369 l 3.388298,0.561 h 0.580079 58.668619 l 5.17513,0.66915 c 0.16885,0.0961 0.33211,0.20184 0.48895,0.31655 l 3.07485,4.25124 c 1.43753,1.73822 3.69415,3.60713 6.73677,5.33165 l 4.76324,2.29723 c 8.00193,3.30554 19.01308,5.54484 31.04065,5.84414 l 5.29109,-5e-5 c 12.01927,-0.29946 23.02771,-2.5387 31.02893,-5.84407 l 4.76324,-2.29725 c 3.04262,-1.72452 5.29923,-3.59343 6.73676,-5.33165 l 3.07484,-4.25123 c 0.15684,-0.11471 0.3201,-0.2204 0.48895,-0.31655 l 5.17514,-0.66916 54.28646,0 4.56185,-0.11914 c 1.42773,0.11914 1.42773,0.11914 1.42773,0.11914 12.09829,-1.83969 20.2219,-11.71326 21.18728,-24.91704 l -0.003,-5.28685 c -0.85434,-11.32019 -7.1234,-20.48204 -14.99543,-23.67579 l -4.83085,-2.02543 c -1.00721,-0.93464 -1.60191,-2.24912 -1.639,-3.62267 l 1.76624,-4.92238 c 6.37093,-14.473595 2.21472,-32.381081 -11.79601,-46.603003 l -3.86862,-3.608131 C 236.18271,41.754857 219.07425,35.730242 202.81695,36.309688 c -1.4602,0.05204 -3.90705,0.300186 -5.21579,-0.312321 -0.85958,-0.402298 -2.25436,-1.813054 -3.33502,-2.796518 -11.97698,-10.89982 -26.99473,-17.085686 -42.23385,-17.526046 -1.46053,-0.0422 -2.64907,-0.01855 -2.65338,-0.01855 -0.01,0 -0.01,0 -0.01,0 z"
       inkscape:label="InnerConture"
       inkscape:path-effect="#path-effect45;#path-effect46"
       inkscape:original-d="M 149.29004,10.546966 A 72.852209,67.560767 63.196444 0 0 139.60245,11.46116 72.852209,67.560767 63.196444 0 0 89.176325,57.269222 38.102103,44.346206 28.233646 0 0 40.677624,71.271331 38.102103,44.346206 28.233646 0 0 30.180775,107.88199 26.480723,32.668909 0 0 0 9.7014153,139.64725 26.480723,32.668909 0 0 0 34.395078,172.17215 v 0.14423 h 1.787344 61.31359 a 52.398022,23.29668 0 0 0 51.273478,18.74468 52.398022,23.29668 0 0 0 51.27349,-18.74468 h 60.84672 v -0.1605 a 26.480723,32.668909 0 0 0 1.9873,0.1605 26.480723,32.668909 0 0 0 26.48101,-32.66913 A 26.480723,32.668909 0 0 0 267.79396,107.54842 60.108476,48.318692 21.894343 0 0 254.2461,50.57475 60.108476,48.318692 21.894343 0 0 199.76597,31.370022 72.852209,67.560767 63.196444 0 0 149.29004,10.546966 Z"
       transform="matrix(0.64172874,0,0,0.55097915,4.0737274,4.4705041)" />
  </g>
  <g
     inkscape:groupmode="layer"
     id="layer5"
     inkscape:label="Contents" />
  <metadata
     id="metadata45">
    <rdf:RDF>
      <cc:Work
         rdf:about="">
        <cc:license
           rdf:resource="http://creativecommons.org/publicdomain/zero/1.0/" />
      </cc:Work>
      <cc:License
         rdf:about="http://creativecommons.org/publicdomain/zero/1.0/">
        <cc:permits
           rdf:resource="http://creativecommons.org/ns#Reproduction" />
        <cc:permits
           rdf:resource="http://creativecommons.org/ns#Distribution" />
        <cc:permits
           rdf:resource="http://creativecommons.org/ns#DerivativeWorks" />
      </cc:License>
    </rdf:RDF>
  </metadata>
</svg>
