<?xml version="1.0" encoding="UTF-8" standalone="no"?>
<!-- Created with Inkscape (http://www.inkscape.org/) -->

<svg
   width="200mm"
   height="120mm"
   viewBox="0 0 200 120"
   version="1.1"
   id="svg1"
   inkscape:version="1.4.2 (ebf0e94, 2025-05-08)"
   sodipodi:docname="stars.svg"
   xmlns:inkscape="http://www.inkscape.org/namespaces/inkscape"
   xmlns:sodipodi="http://sodipodi.sourceforge.net/DTD/sodipodi-0.dtd"
   xmlns="http://www.w3.org/2000/svg"
   xmlns:svg="http://www.w3.org/2000/svg"
   xmlns:rdf="http://www.w3.org/1999/02/22-rdf-syntax-ns#"
   xmlns:cc="http://creativecommons.org/ns#">
  <sodipodi:namedview
     id="namedview1"
     pagecolor="#ffffff"
     bordercolor="#000000"
     borderopacity="0.25"
     inkscape:showpageshadow="2"
     inkscape:pageopacity="0.0"
     inkscape:pagecheckerboard="true"
     inkscape:deskcolor="#d1d1d1"
     inkscape:document-units="mm"
     inkscape:zoom="1.2450709"
     inkscape:cx="387.12655"
     inkscape:cy="213.24087"
     inkscape:window-width="1920"
     inkscape:window-height="1009"
     inkscape:window-x="-8"
     inkscape:window-y="-8"
     inkscape:window-maximized="1"
     inkscape:current-layer="layer4"
     showguides="false" />
  <defs
     id="defs1">
    <inkscape:path-effect
       effect="offset"
       id="path-effect60"
       is_visible="true"
       lpeversion="1.3"
       linejoin_type="miter"
       unit="mm"
       offset="-2"
       miter_limit="4"
       attempt_force_join="false"
       update_on_knot_move="true" />
    <inkscape:path-effect
       effect="offset"
       id="path-effect43"
       is_visible="false"
       lpeversion="1.3"
       linejoin_type="miter"
       unit="mm"
       offset="-1.4"
       miter_limit="4"
       attempt_force_join="false"
       update_on_knot_move="true" />
    <inkscape:path-effect
       effect="roughen"
       id="path-effect7"
       is_visible="true"
       lpeversion="1.2"
       global_randomize="1;1"
       displace_x="1.47682;1"
       displace_y="0.889232;1"
       method="size"
       max_segment_size="2.6677"
       segments="2"
       handles="along"
       shift_nodes="true"
       fixed_displacement="false"
       spray_tool_friendly="false" />
    <inkscape:path-effect
       effect="join_type"
       id="path-effect6"
       is_visible="true"
       lpeversion="1"
       linecap_type="butt"
       line_width="0.61439198"
       linejoin_type="extrp_arc"
       miter_limit="100"
       attempt_force_join="true" />
    <inkscape:path-effect
       effect="offset"
       id="path-effect5"
       is_visible="true"
       lpeversion="1.3"
       linejoin_type="miter"
       unit="mm"
       offset="-4.8230677"
       miter_limit="3.5"
       attempt_force_join="false"
       update_on_knot_move="true" />
    <inkscape:path-effect
       effect="fillet_chamfer"
       id="path-effect4"
       is_visible="true"
       lpeversion="1"
       nodesatellites_param="IF,0,0,1,0,10.847917,0,1 @ IF,0,0,1,0,10.847917,0,1 @ IF,0,0,1,0,10.847917,0,1 @ IF,0,0,1,0,10.847917,0,1 @ IF,0,0,1,0,10.847917,0,1 @ IF,0,0,1,0,10.847917,0,1 @ IF,0,0,1,0,10.847917,0,1 @ IF,0,0,1,0,10.847917,0,1 @ IF,0,0,1,0,10.847917,0,1 @ IF,0,0,1,0,10.847917,0,1 @ IF,0,0,1,0,10.847917,0,1 @ IF,0,0,1,0,10.847917,0,1 @ IF,0,0,1,0,10.847917,0,1 @ IF,0,0,1,0,10.847917,0,1 @ IF,0,0,1,0,10.847917,0,1 @ IF,0,0,1,0,10.847917,0,1 @ IF,0,0,1,0,10.847917,0,1 @ IF,0,0,1,0,10.847917,0,1 @ IF,0,0,1,0,10.847917,0,1 @ IF,0,0,1,0,10.847917,0,1 @ IF,0,0,1,0,10.847917,0,1 @ IF,0,0,1,0,10.847917,0,1 @ IF,0,0,1,0,10.847917,0,1 @ IF,0,0,1,0,10.847917,0,1"
       radius="41"
       unit="px"
       method="auto"
       mode="F"
       chamfer_steps="1"
       flexible="false"
       use_knot_distance="true"
       apply_no_radius="true"
       apply_with_radius="true"
       only_selected="false"
       hide_knots="false" />
    <inkscape:path-effect
       effect="show_handles"
       id="path-effect3"
       is_visible="true"
       lpeversion="1"
       nodes="true"
       handles="true"
       original_path="true"
       show_center_node="false"
       original_d="false"
       scale_nodes_and_handles="10" />
    <inkscape:path-effect
       effect="offset"
       id="path-effect2"
       is_visible="true"
       lpeversion="1.3"
       linejoin_type="miter"
       unit="mm"
       offset="-6.3388891"
       miter_limit="4"
       attempt_force_join="false"
       update_on_knot_move="true" />
    <inkscape:path-effect
       effect="spiro"
       id="path-effect1"
       is_visible="true"
       lpeversion="1" />
    <inkscape:path-effect
       effect="fillet_chamfer"
       id="path-effect46"
       is_visible="true"
       lpeversion="1"
       nodesatellites_param="IC,0,0,1,0,2.6458333,0,1 @ IC,0,0,1,0,2.6458333,0,1 @ IC,0,0,1,0,2.6458333,0,1 @ IC,0,0,1,0,2.6458333,0,1 @ IC,0,0,1,0,2.6458333,0,1 @ IC,0,0,1,0,2.6458333,0,1 @ IC,0,0,1,0,2.6458333,0,1 @ IC,0,0,1,0,2.6458333,0,1 @ IC,0,0,1,0,2.6458333,0,1 @ IC,0,0,1,0,2.6458333,0,1 @ IC,0,0,1,0,2.6458333,0,1 @ IC,0,0,1,0,2.6458333,0,1 @ IC,0,0,1,0,2.6458333,0,1 @ IC,0,0,1,0,2.6458333,0,1 @ IC,0,0,1,0,2.6458333,0,1 @ IC,0,0,1,0,2.6458333,0,1 @ IC,0,0,1,0,2.6458333,0,1 @ IC,0,0,1,0,2.6458333,0,1 @ IC,0,0,1,0,2.6458333,0,1 @ IC,0,0,1,0,2.6458333,0,1 @ IC,0,0,1,0,2.6458333,0,1 @ IC,0,0,1,0,2.6458333,0,1 @ IC,0,0,1,0,2.6458333,0,1 @ IC,0,0,1,0,2.6458333,0,1 @ IC,0,0,1,0,2.6458333,0,1 @ IC,0,0,1,0,2.6458333,0,1 @ IC,0,0,1,0,2.6458333,0,1 @ IC,0,0,1,0,2.6458333,0,1 @ IC,0,0,1,0,2.6458333,0,1"
       radius="10"
       unit="px"
       method="auto"
       mode="F"
       chamfer_steps="1"
       flexible="false"
       use_knot_distance="true"
       apply_no_radius="true"
       apply_with_radius="true"
       only_selected="false"
       hide_knots="false" />
    <inkscape:path-effect
       effect="offset"
       id="path-effect45"
       is_visible="true"
       lpeversion="1.3"
       linejoin_type="round"
       unit="mm"
       offset="-5.1"
       miter_limit="4"
       attempt_force_join="false"
       update_on_knot_move="true" />
    <inkscape:path-effect
       effect="offset"
       id="path-effect5-3"
       is_visible="true"
       lpeversion="1.3"
       linejoin_type="miter"
       unit="mm"
       offset="-4.8230677"
       miter_limit="3.5"
       attempt_force_join="false"
       update_on_knot_move="true" />
    <inkscape:path-effect
       effect="offset"
       id="path-effect2-5"
       is_visible="true"
       lpeversion="1.3"
       linejoin_type="miter"
       unit="mm"
       offset="-6.3388891"
       miter_limit="4"
       attempt_force_join="false"
       update_on_knot_move="true" />
  </defs>
  <g
     inkscape:groupmode="layer"
     id="layer4"
     inkscape:label="-BaseShapes"
     style="display:none"
     sodipodi:insensitive="true">
    <path
       id="path40"
       style="display:inline;fill:#c8ab37;stroke:#ff0000;stroke-width:0.4"
       inkscape:transform-center-x="1.0083982"
       inkscape:transform-center-y="1.2926462"
       transform="matrix(0.71127699,0,0,0.71263637,8.769382,19.850035)"
       d="m 24.731246,28.358832 1.505371,-0.387227 9.23856,13.312202 1.010604,-16.172172 15.515055,-4.672105 -14.242901,-5.632198 m 0,10e-7 L 36.932596,14.481018 37.282785,-1.7187096 26.960241,10.770454 11.661692,5.4312145 20.349541,19.10889 10.544287,32.008484 24.731246,28.358832"
       sodipodi:nodetypes="cccccccccccccc"
       inkscape:label="star4"
       sodipodi:insensitive="true" />
    <path
       id="path42"
       style="display:inline;fill:#decd87;stroke:#ff0000;stroke-width:0.4"
       d="m 63.425069,30.402279 -1.225248,7.907011 8.456848,-7.862053 10.295496,5.184697 -2.423625,-5.229655 m 0,0 -2.424141,-5.229655 8.130253,-8.200017 -11.453565,1.398365 -5.269962,-10.2526045 -2.230872,11.3233395 -11.387935,1.863453 10.074837,5.600174 -0.542086,3.496945"
       sodipodi:nodetypes="cccccccccccccc"
       inkscape:label="star3"
       sodipodi:insensitive="true" />
    <path
       id="path38"
       style="display:inline;fill:#e9ddaf;stroke:#ff0000;stroke-width:0.284783"
       inkscape:transform-center-x="1.0083982"
       inkscape:transform-center-y="1.2926462"
       d="m 130.61632,11.30577 -7.10861,9.091951 -11.00037,-3.485575 6.45542,9.549805 -2.8298,3.940328 -3.90208,5.432743 11.09803,-3.189986 6.83989,9.278503 0.40359,-11.52126 10.95902,-3.639055 -10.84843,-3.929992 z"
       inkscape:label="star2"
       sodipodi:insensitive="true" />
    <path
       id="path43"
       style="display:inline;fill:#d3bc5f;stroke:#ff0000;stroke-width:0.4"
       d="m 159.97525,30.402279 -2.03812,1.273824 11.47785,1.261421 2.80603,11.180197 1.92753,-4.266407 m 0,0 2.81895,-6.238895 11.52023,0.793233 -8.5447,-7.754049 4.31395,-10.690303 -10.02729,5.713863 -8.85373,-7.400582 2.34715,11.285099 -7.74785,4.842599"
       inkscape:label="star1"
       sodipodi:insensitive="true" />
    <rect
       style="display:inline;fill:none;stroke:#008000;stroke-width:0.4"
       id="rect36"
       width="147.78844"
       height="74.605347"
       x="26.360144"
       y="30.402239"
       sodipodi:insensitive="true" />
  </g>
  <g
     inkscape:label="Cut"
     inkscape:groupmode="layer"
     id="layer1"
     style="display:inline"
     sodipodi:insensitive="true">
    <path
       id="path14"
       style="display:inline;fill:none;stroke:#000000;stroke-width:0.4;stroke-dasharray:none"
       d="M 67.511125,8.1183675 65.280253,19.441707 53.892318,21.30516 63.967155,26.905334 63.425069,30.402279 H 35.625732 l -0.587044,-0.232544 0.249081,-11.544515 -7.342188,8.900232 -10.881506,-3.804936 6.179467,9.747209 -6.974251,9.19272 10.090857,-2.600875 v 64.94797 H 174.14854 V 39.851314 l 2.81895,-6.238895 11.52023,0.793233 -8.5447,-7.754049 4.31395,-10.690303 -10.02729,5.713863 -8.85373,-7.400582 2.34715,11.285099 -7.74785,4.842599 h -29.40286 l 10.95902,-3.639055 -10.84843,-3.929992 -0.0667,-11.527462 -7.10861,9.091951 -11.00037,-3.485575 6.45542,9.549805 -2.8298,3.940328 H 78.52854 l -2.424141,-5.229655 8.130253,-8.200017 -11.453565,1.398365 z" />
  </g>
  <g
     inkscape:groupmode="layer"
     id="layer2"
     inkscape:label="Engrave"
     style="display:inline"
     sodipodi:insensitive="true">
    <path
       id="path2"
       style="display:inline;fill:none;stroke:#ff0000;stroke-width:0.561832;stroke-dasharray:none"
       inkscape:transform-center-x="1.0083982"
       inkscape:transform-center-y="1.2926462"
       d="m 24.731246,28.358832 1.505371,-0.387227 9.23856,13.312202 1.010604,-16.172172 15.515055,-4.672105 -14.242901,-5.632198"
       transform="matrix(0.71127699,0,0,0.71263637,8.769382,19.850035)"
       sodipodi:nodetypes="cccccc" />
    <path
       id="path4"
       style="display:inline;fill:none;stroke:#ff0000;stroke-width:0.561832;stroke-dasharray:none"
       inkscape:transform-center-x="0.33729016"
       inkscape:transform-center-y="-1.7792115"
       d="m 36.932515,14.480908 15.068442,5.958283 -15.515334,4.672629 v 0 l -1.010259,16.172151 -5.354803,-7.715953"
       transform="matrix(0.23866269,0.6700411,-0.67132168,0.23911881,131.47915,2.1932765)" />
    <path
       d="m 63.425069,30.402279 -1.225248,7.907011 8.456848,-7.862053 10.295496,5.184697 -2.423625,-5.229655"
       style="display:inline;fill:none;stroke:#ff0000;stroke-width:0.4;stroke-dasharray:none"
       id="path31"
       sodipodi:nodetypes="ccccc" />
    <path
       d="m 159.97525,30.402279 -2.03812,1.273824 11.47785,1.261421 2.80603,11.180197 1.92753,-4.266407"
       style="display:inline;fill:none;stroke:#ff0000;stroke-width:0.4;stroke-dasharray:none"
       id="path24"
       sodipodi:nodetypes="ccccc" />
  </g>
  <g
     inkscape:groupmode="layer"
     id="g29"
     inkscape:label="Engrave 2"
     style="display:inline"
     sodipodi:insensitive="true">
    <path
       id="path40-2"
       style="display:inline;fill:none;stroke:#ff0000;stroke-width:0.4;stroke-dasharray:none"
       inkscape:transform-center-x="0.7058784"
       inkscape:transform-center-y="0.90485269"
       d="m 27.766842,38.227713 0.749516,-0.193167 4.599822,6.640732 0.503173,-8.067415 7.724852,-2.330658 -7.091454,-2.809597 m 0,1e-6 -0.410931,-0.162781 0.174357,-8.08116 -5.139531,6.230162 -7.617055,-2.663455 4.325627,6.823046 -4.881975,6.434904 7.063599,-1.820612"
       sodipodi:nodetypes="cccccccccccccc"
       inkscape:label="star4" />
    <path
       id="path42-8"
       style="display:inline;fill:none;stroke:#ff0000;stroke-width:0.4;stroke-dasharray:none"
       d="m 65.108796,28.23613 -0.857674,5.534907 5.919794,-5.503437 7.206847,3.629288 -1.696537,-3.660758 m 0,0 -1.696899,-3.660759 5.691177,-5.740012 -8.017496,0.978856 -3.688973,-7.176824 -1.56161,7.926338 -7.971555,1.304417 7.052386,3.920122 -0.37946,2.447862"
       sodipodi:nodetypes="cccccccccccccc"
       inkscape:label="star3" />
    <path
       id="path38-6"
       style="display:inline;fill:none;stroke:#ff0000;stroke-width:0.4;stroke-dasharray:none"
       inkscape:transform-center-x="0.70588206"
       inkscape:transform-center-y="0.90485228"
       d="m 129.50765,15.898934 -4.97603,6.364366 -7.70026,-2.439902 4.5188,6.684863 -1.98086,2.75823 -2.73146,3.80292 7.76862,-2.23299 4.78793,6.494952 0.28251,-8.064882 7.67131,-2.547339 -7.5939,-2.750994 z"
       inkscape:label="star2" />
    <path
       id="path43-0"
       style="display:inline;fill:none;stroke:#ff0000;stroke-width:0.4;stroke-dasharray:none"
       d="m 163.94136,30.052964 -1.42668,0.891677 8.03449,0.882995 1.96422,7.826138 1.34927,-2.986485 m 0,0 1.97327,-4.367227 8.06416,0.555263 -5.98129,-5.427834 3.01976,-7.483212 -7.0191,3.999704 -6.19761,-5.180407 1.64301,7.899569 -5.4235,3.389819"
       inkscape:label="star1" />
  </g>
  <g
     inkscape:groupmode="layer"
     id="g35"
     inkscape:label="Engrave 3"
     style="display:inline"
     inkscape:highlight-color="#8e7e1f"
     sodipodi:insensitive="true">
    <path
       id="path32"
       style="display:inline;fill:none;stroke:#ff0000;stroke-width:0.561832;stroke-dasharray:none"
       inkscape:transform-center-x="1.0083982"
       inkscape:transform-center-y="1.2926462"
       d="m 24.731246,28.358832 1.505371,-0.387227 9.23856,13.312202 1.010604,-16.172172 15.515055,-4.672105 -14.242901,-5.632198"
       transform="matrix(0.71127699,0,0,0.71263637,8.769382,19.850035)"
       sodipodi:nodetypes="cccccc" />
    <path
       id="path33"
       style="display:inline;fill:none;stroke:#ff0000;stroke-width:0.561832;stroke-dasharray:none"
       inkscape:transform-center-x="0.33729016"
       inkscape:transform-center-y="-1.7792115"
       d="m 36.932515,14.480908 15.068442,5.958283 -15.515334,4.672629 v 0 l -1.010259,16.172151 -5.354803,-7.715953"
       transform="matrix(0.23866269,0.6700411,-0.67132168,0.23911881,131.47915,2.1932765)" />
    <path
       d="m 63.425069,30.402279 -1.225248,7.907011 8.456848,-7.862053 10.295496,5.184697 -2.423625,-5.229655"
       style="display:inline;fill:none;stroke:#ff0000;stroke-width:0.4;stroke-dasharray:none"
       id="path34"
       sodipodi:nodetypes="ccccc" />
    <path
       d="m 159.97525,30.402279 -2.03812,1.273824 11.47785,1.261421 2.80603,11.180197 1.92753,-4.266407"
       style="display:inline;fill:none;stroke:#ff0000;stroke-width:0.4;stroke-dasharray:none"
       id="path35"
       sodipodi:nodetypes="ccccc" />
    <rect
       style="fill:none;stroke:#ff0000;stroke-width:0.4;stroke-dasharray:none"
       id="rect35"
       width="124.22688"
       height="55.004066"
       x="39.139137"
       y="43.185387" />
  </g>
  <g
     inkscape:groupmode="layer"
     id="g47"
     inkscape:label="Engrave 4"
     style="display:inline"
     sodipodi:insensitive="true">
    <path
       id="rect51"
       style="display:inline;fill:none;stroke:#ff0000;stroke-width:0.4;stroke-dasharray:none"
       d="m 46.154297,32.412109 5.707031,2.261719 -15.220703,4.591797 -0.992188,15.910156 -7.279296,-10.509765 V 102.99805 H 172.13867 V 49.179687 l -0.46289,1.023438 -3.87109,-15.419922 -15.84375,-1.742187 1.00586,-0.628907 h -20.45508 l -0.53711,15.34961 -9.43555,-12.798828 -15.32031,4.40625 4.99609,-6.957032 H 81.675781 l 3.527344,7.611328 -14.201172,-7.152343 -11.677734,10.853515 1.755859,-11.3125 z"
       inkscape:path-effect="#path-effect60"
       inkscape:original-d="M 35.625732,30.402279 45.75638,34.415987 34.720878,37.7455 34.002059,49.270378 27.430884,39.783618 26.360148,40.05957 v 64.94797 H 174.14854 V 39.851314 l -1.92753,4.266407 -2.80603,-11.180197 -11.47785,-1.261421 2.03812,-1.273824 h -29.40286 l -0.40359,11.52126 -6.83989,-9.278503 -11.09803,3.189986 3.90208,-5.432743 H 78.52854 l 2.423625,5.229655 -10.295496,-5.184697 -8.456848,7.862053 1.225248,-7.907011 z" />
    <path
       id="path44"
       style="display:inline;fill:none;stroke:#ff0000;stroke-width:0.4;stroke-dasharray:none"
       inkscape:transform-center-x="0.7058784"
       inkscape:transform-center-y="0.90485269"
       d="m 27.766842,38.227713 0.749516,-0.193167 4.599822,6.640732 0.503173,-8.067415 7.724852,-2.330658 -7.091454,-2.809597 m 0,1e-6 -0.410931,-0.162781 0.174357,-8.08116 -5.139531,6.230162 -7.617055,-2.663455 4.325627,6.823046 -4.881975,6.434904 7.063599,-1.820612"
       sodipodi:nodetypes="cccccccccccccc"
       inkscape:label="star4" />
    <path
       id="path45"
       style="display:inline;fill:none;stroke:#ff0000;stroke-width:0.4;stroke-dasharray:none"
       d="m 65.108796,28.23613 -0.857674,5.534907 5.919794,-5.503437 7.206847,3.629288 -1.696537,-3.660758 m 0,0 -1.696899,-3.660759 5.691177,-5.740012 -8.017496,0.978856 -3.688973,-7.176824 -1.56161,7.926338 -7.971555,1.304417 7.052386,3.920122 -0.37946,2.447862"
       sodipodi:nodetypes="cccccccccccccc"
       inkscape:label="star3" />
    <path
       id="path46"
       style="display:inline;fill:none;stroke:#ff0000;stroke-width:0.4;stroke-dasharray:none"
       inkscape:transform-center-x="0.70588206"
       inkscape:transform-center-y="0.90485228"
       d="m 129.50765,15.898934 -4.97603,6.364366 -7.70026,-2.439902 4.5188,6.684863 -1.98086,2.75823 -2.73146,3.80292 7.76862,-2.23299 4.78793,6.494952 0.28251,-8.064882 7.67131,-2.547339 -7.5939,-2.750994 z"
       inkscape:label="star2" />
    <path
       id="path47"
       style="display:inline;fill:none;stroke:#ff0000;stroke-width:0.4;stroke-dasharray:none"
       d="m 163.94136,30.052964 -1.42668,0.891677 8.03449,0.882995 1.96422,7.826138 1.34927,-2.986485 m 0,0 1.97327,-4.367227 8.06416,0.555263 -5.98129,-5.427834 3.01976,-7.483212 -7.0191,3.999704 -6.19761,-5.180407 1.64301,7.899569 -5.4235,3.389819"
       inkscape:label="star1" />
  </g>
  <g
     inkscape:groupmode="layer"
     id="g63"
     inkscape:label="Engrave 5"
     style="display:inline"
     sodipodi:insensitive="true">
    <path
       id="path60"
       style="display:inline;fill:none;stroke:#ff0000;stroke-width:0.4;stroke-dasharray:none"
       inkscape:transform-center-x="0.7058784"
       inkscape:transform-center-y="0.90485269"
       d="m 27.766842,38.227713 0.749516,-0.193167 4.599822,6.640732 0.503173,-8.067415 7.724852,-2.330658 -7.091454,-2.809597 m 0,1e-6 -0.410931,-0.162781 0.174357,-8.08116 -5.139531,6.230162 -7.617055,-2.663455 4.325627,6.823046 -4.881975,6.434904 7.063599,-1.820612"
       sodipodi:nodetypes="cccccccccccccc"
       inkscape:label="star4" />
    <path
       id="path61"
       style="display:inline;fill:none;stroke:#ff0000;stroke-width:0.4;stroke-dasharray:none"
       d="m 65.108796,28.23613 -0.857674,5.534907 5.919794,-5.503437 7.206847,3.629288 -1.696537,-3.660758 m 0,0 -1.696899,-3.660759 5.691177,-5.740012 -8.017496,0.978856 -3.688973,-7.176824 -1.56161,7.926338 -7.971555,1.304417 7.052386,3.920122 -0.37946,2.447862"
       sodipodi:nodetypes="cccccccccccccc"
       inkscape:label="star3" />
    <path
       id="path62"
       style="display:inline;fill:none;stroke:#ff0000;stroke-width:0.4;stroke-dasharray:none"
       inkscape:transform-center-x="0.70588206"
       inkscape:transform-center-y="0.90485228"
       d="m 129.50765,15.898934 -4.97603,6.364366 -7.70026,-2.439902 4.5188,6.684863 -1.98086,2.75823 -2.73146,3.80292 7.76862,-2.23299 4.78793,6.494952 0.28251,-8.064882 7.67131,-2.547339 -7.5939,-2.750994 z"
       inkscape:label="star2" />
    <path
       id="path63"
       style="display:inline;fill:none;stroke:#ff0000;stroke-width:0.4;stroke-dasharray:none"
       d="m 163.94136,30.052964 -1.42668,0.891677 8.03449,0.882995 1.96422,7.826138 1.34927,-2.986485 m 0,0 1.97327,-4.367227 8.06416,0.555263 -5.98129,-5.427834 3.01976,-7.483212 -7.0191,3.999704 -6.19761,-5.180407 1.64301,7.899569 -5.4235,3.389819"
       inkscape:label="star1" />
    <rect
       style="fill:none;stroke:#ff0000;stroke-width:0.4;stroke-dasharray:none"
       id="rect63"
       width="128.28961"
       height="56.4118"
       x="36.947193"
       y="40.272343" />
  </g>
  <g
     inkscape:groupmode="layer"
     id="g6"
     inkscape:label="Engrave 6"
     style="display:inline"
     sodipodi:insensitive="true">
    <path
       id="path1"
       style="display:inline;fill:none;stroke:#ff0000;stroke-width:0.4;stroke-dasharray:none"
       inkscape:transform-center-x="0.7058784"
       inkscape:transform-center-y="0.90485269"
       d="m 27.766842,38.227713 0.749516,-0.193167 4.599822,6.640732 0.503173,-8.067415 7.724852,-2.330658 -7.091454,-2.809597 m 0,1e-6 -0.410931,-0.162781 0.174357,-8.08116 -5.139531,6.230162 -7.617055,-2.663455 4.325627,6.823046 -4.881975,6.434904 7.063599,-1.820612"
       sodipodi:nodetypes="cccccccccccccc"
       inkscape:label="star4" />
    <path
       id="path3"
       style="display:inline;fill:none;stroke:#ff0000;stroke-width:0.4;stroke-dasharray:none"
       d="m 65.108796,28.23613 -0.857674,5.534907 5.919794,-5.503437 7.206847,3.629288 -1.696537,-3.660758 m 0,0 -1.696899,-3.660759 5.691177,-5.740012 -8.017496,0.978856 -3.688973,-7.176824 -1.56161,7.926338 -7.971555,1.304417 7.052386,3.920122 -0.37946,2.447862"
       sodipodi:nodetypes="cccccccccccccc"
       inkscape:label="star3" />
    <path
       id="path5"
       style="display:inline;fill:none;stroke:#ff0000;stroke-width:0.4;stroke-dasharray:none"
       inkscape:transform-center-x="0.70588206"
       inkscape:transform-center-y="0.90485228"
       d="m 129.50765,15.898934 -4.97603,6.364366 -7.70026,-2.439902 4.5188,6.684863 -1.98086,2.75823 -2.73146,3.80292 7.76862,-2.23299 4.78793,6.494952 0.28251,-8.064882 7.67131,-2.547339 -7.5939,-2.750994 z"
       inkscape:label="star2" />
    <path
       id="path6"
       style="display:inline;fill:none;stroke:#ff0000;stroke-width:0.4;stroke-dasharray:none"
       d="m 163.94136,30.052964 -1.42668,0.891677 8.03449,0.882995 1.96422,7.826138 1.34927,-2.986485 m 0,0 1.97327,-4.367227 8.06416,0.555263 -5.98129,-5.427834 3.01976,-7.483212 -7.0191,3.999704 -6.19761,-5.180407 1.64301,7.899569 -5.4235,3.389819"
       inkscape:label="star1" />
    <path
       id="path2-5"
       style="display:inline;fill:none;stroke:#ff0000;stroke-width:0.4;stroke-dasharray:none"
       inkscape:transform-center-x="1.0083982"
       inkscape:transform-center-y="1.2926462"
       d="m 26.360148,40.05957 1.070736,-0.275952 6.571175,9.486759 0.718819,-11.524878 11.035502,-3.329512 -10.130648,-4.013709"
       sodipodi:nodetypes="cccccc" />
    <path
       id="path4-0"
       style="display:inline;fill:none;stroke:#ff0000;stroke-width:0.4;stroke-dasharray:none"
       inkscape:transform-center-x="0.33729016"
       inkscape:transform-center-y="-1.7792115"
       d="m 130.57222,30.402237 -0.40365,11.521213 -6.83977,-9.278598 v 0 l -11.09783,3.19015 3.9019,-5.432967" />
    <path
       d="m 63.425069,30.402279 -1.225248,7.907011 8.456848,-7.862053 10.295496,5.184697 -2.423625,-5.229655"
       style="display:inline;fill:none;stroke:#ff0000;stroke-width:0.4;stroke-dasharray:none"
       id="path31-9"
       sodipodi:nodetypes="ccccc" />
    <path
       d="m 159.97525,30.402279 -2.03812,1.273824 11.47785,1.261421 2.80603,11.180197 1.92753,-4.266407"
       style="display:inline;fill:none;stroke:#ff0000;stroke-width:0.4;stroke-dasharray:none"
       id="path24-0"
       sodipodi:nodetypes="ccccc" />
  </g>
  <g
     inkscape:groupmode="layer"
     id="g15"
     inkscape:label="Engrave 7"
     style="display:inline"
     sodipodi:insensitive="true">
    <path
       id="path7"
       style="display:inline;fill:none;stroke:#ff0000;stroke-width:0.4;stroke-dasharray:none"
       inkscape:transform-center-x="0.7058784"
       inkscape:transform-center-y="0.90485269"
       d="m 27.766842,38.227713 0.749516,-0.193167 4.599822,6.640732 0.503173,-8.067415 7.724852,-2.330658 -7.091454,-2.809597 m 0,1e-6 -0.410931,-0.162781 0.174357,-8.08116 -5.139531,6.230162 -7.617055,-2.663455 4.325627,6.823046 -4.881975,6.434904 7.063599,-1.820612"
       sodipodi:nodetypes="cccccccccccccc"
       inkscape:label="star4" />
    <path
       id="path8"
       style="display:inline;fill:none;stroke:#ff0000;stroke-width:0.4;stroke-dasharray:none"
       d="m 65.108796,28.23613 -0.857674,5.534907 5.919794,-5.503437 7.206847,3.629288 -1.696537,-3.660758 m 0,0 -1.696899,-3.660759 5.691177,-5.740012 -8.017496,0.978856 -3.688973,-7.176824 -1.56161,7.926338 -7.971555,1.304417 7.052386,3.920122 -0.37946,2.447862"
       sodipodi:nodetypes="cccccccccccccc"
       inkscape:label="star3" />
    <path
       id="path9"
       style="display:inline;fill:none;stroke:#ff0000;stroke-width:0.4;stroke-dasharray:none"
       inkscape:transform-center-x="0.70588206"
       inkscape:transform-center-y="0.90485228"
       d="m 129.50765,15.898934 -4.97603,6.364366 -7.70026,-2.439902 4.5188,6.684863 -1.98086,2.75823 -2.73146,3.80292 7.76862,-2.23299 4.78793,6.494952 0.28251,-8.064882 7.67131,-2.547339 -7.5939,-2.750994 z"
       inkscape:label="star2" />
    <path
       id="path10"
       style="display:inline;fill:none;stroke:#ff0000;stroke-width:0.4;stroke-dasharray:none"
       d="m 163.94136,30.052964 -1.42668,0.891677 8.03449,0.882995 1.96422,7.826138 1.34927,-2.986485 m 0,0 1.97327,-4.367227 8.06416,0.555263 -5.98129,-5.427834 3.01976,-7.483212 -7.0191,3.999704 -6.19761,-5.180407 1.64301,7.899569 -5.4235,3.389819"
       inkscape:label="star1" />
    <path
       id="path11"
       style="display:inline;fill:none;stroke:#ff0000;stroke-width:0.4;stroke-dasharray:none"
       inkscape:transform-center-x="1.0083982"
       inkscape:transform-center-y="1.2926462"
       d="m 26.360148,40.05957 1.070736,-0.275952 6.571175,9.486759 0.718819,-11.524878 11.035502,-3.329512 -10.130648,-4.013709"
       sodipodi:nodetypes="cccccc" />
    <path
       id="path12"
       style="display:inline;fill:none;stroke:#ff0000;stroke-width:0.4;stroke-dasharray:none"
       inkscape:transform-center-x="0.33729016"
       inkscape:transform-center-y="-1.7792115"
       d="m 130.57222,30.402237 -0.40365,11.521213 -6.83977,-9.278598 v 0 l -11.09783,3.19015 3.9019,-5.432967" />
    <path
       d="m 63.425069,30.402279 -1.225248,7.907011 8.456848,-7.862053 10.295496,5.184697 -2.423625,-5.229655"
       style="display:inline;fill:none;stroke:#ff0000;stroke-width:0.4;stroke-dasharray:none"
       id="path13"
       sodipodi:nodetypes="ccccc" />
    <path
       d="m 159.97525,30.402279 -2.03812,1.273824 11.47785,1.261421 2.80603,11.180197 1.92753,-4.266407"
       style="display:inline;fill:none;stroke:#ff0000;stroke-width:0.4;stroke-dasharray:none"
       id="path15"
       sodipodi:nodetypes="ccccc" />
    <rect
       style="display:inline;fill:none;stroke:#ff0000;stroke-width:0.4;stroke-dasharray:none"
       id="rect35-8"
       width="124.22688"
       height="55.004066"
       x="39.139137"
       y="43.185387" />
  </g>
  <g
     inkscape:groupmode="layer"
     id="layer3"
     inkscape:label="Contents" />
  <metadata
     id="metadata45">
    <rdf:RDF>
      <cc:Work
         rdf:about="">
        <cc:license
           rdf:resource="http://creativecommons.org/publicdomain/zero/1.0/" />
      </cc:Work>
      <cc:License
         rdf:about="http://creativecommons.org/publicdomain/zero/1.0/">
        <cc:permits
           rdf:resource="http://creativecommons.org/ns#Reproduction" />
        <cc:permits
           rdf:resource="http://creativecommons.org/ns#Distribution" />
        <cc:permits
           rdf:resource="http://creativecommons.org/ns#DerivativeWorks" />
      </cc:License>
    </rdf:RDF>
  </metadata>
</svg>
