<?xml version="1.0" encoding="UTF-8" standalone="no"?>
<!-- Created with Inkscape (http://www.inkscape.org/) -->

<svg
   width="200mm"
   height="120mm"
   viewBox="0 0 200 120"
   version="1.1"
   id="svg1"
   inkscape:version="1.4.2 (ebf0e94, 2025-05-08)"
   sodipodi:docname="symmetric_cloud.svg"
   xmlns:inkscape="http://www.inkscape.org/namespaces/inkscape"
   xmlns:sodipodi="http://sodipodi.sourceforge.net/DTD/sodipodi-0.dtd"
   xmlns="http://www.w3.org/2000/svg"
   xmlns:svg="http://www.w3.org/2000/svg"
   xmlns:rdf="http://www.w3.org/1999/02/22-rdf-syntax-ns#"
   xmlns:cc="http://creativecommons.org/ns#">
  <sodipodi:namedview
     id="namedview1"
     pagecolor="#ffffff"
     bordercolor="#000000"
     borderopacity="0.25"
     inkscape:showpageshadow="2"
     inkscape:pageopacity="0.0"
     inkscape:pagecheckerboard="true"
     inkscape:deskcolor="#d1d1d1"
     inkscape:document-units="mm"
     inkscape:zoom="0.70710678"
     inkscape:cx="505.58135"
     inkscape:cy="387.49452"
     inkscape:window-width="1440"
     inkscape:window-height="830"
     inkscape:window-x="-6"
     inkscape:window-y="-6"
     inkscape:window-maximized="1"
     inkscape:current-layer="layer1" />
  <defs
     id="defs1">
    <inkscape:path-effect
       effect="offset"
       id="path-effect4"
       is_visible="true"
       lpeversion="1.3"
       linejoin_type="miter"
       unit="mm"
       offset="-7.3195216"
       miter_limit="4"
       attempt_force_join="false"
       update_on_knot_move="true" />
    <inkscape:path-effect
       effect="offset"
       id="path-effect3"
       is_visible="true"
       lpeversion="1.3"
       linejoin_type="miter"
       unit="mm"
       offset="-3.6597608"
       miter_limit="4"
       attempt_force_join="false"
       update_on_knot_move="true" />
    <inkscape:path-effect
       effect="offset"
       id="path-effect2"
       is_visible="true"
       lpeversion="1.3"
       linejoin_type="miter"
       unit="mm"
       offset="-6.0996013"
       miter_limit="4"
       attempt_force_join="false"
       update_on_knot_move="true" />
    <inkscape:path-effect
       effect="fillet_chamfer"
       id="path-effect46"
       is_visible="true"
       lpeversion="1"
       nodesatellites_param="IC,0,0,1,0,2.6458333,0,1 @ IC,0,0,1,0,2.6458333,0,1 @ IC,0,0,1,0,2.6458333,0,1 @ IC,0,0,1,0,2.6458333,0,1 @ IC,0,0,1,0,2.6458333,0,1 @ IC,0,0,1,0,2.6458333,0,1 @ IC,0,0,1,0,2.6458333,0,1 @ IC,0,0,1,0,2.6458333,0,1 @ IC,0,0,1,0,2.6458333,0,1 @ IC,0,0,1,0,2.6458333,0,1 @ IC,0,0,1,0,2.6458333,0,1 @ IC,0,0,1,0,2.6458333,0,1 @ IC,0,0,1,0,2.6458333,0,1 @ IC,0,0,1,0,2.6458333,0,1 @ IC,0,0,1,0,2.6458333,0,1 @ IC,0,0,1,0,2.6458333,0,1 @ IC,0,0,1,0,2.6458333,0,1 @ IC,0,0,1,0,2.6458333,0,1 @ IC,0,0,1,0,2.6458333,0,1 @ IC,0,0,1,0,2.6458333,0,1 @ IC,0,0,1,0,2.6458333,0,1 @ IC,0,0,1,0,2.6458333,0,1 @ IC,0,0,1,0,2.6458333,0,1 @ IC,0,0,1,0,2.6458333,0,1 @ IC,0,0,1,0,2.6458333,0,1 @ IC,0,0,1,0,2.6458333,0,1 @ IC,0,0,1,0,2.6458333,0,1 @ IC,0,0,1,0,2.6458333,0,1 @ IC,0,0,1,0,2.6458333,0,1"
       radius="10"
       unit="px"
       method="auto"
       mode="F"
       chamfer_steps="1"
       flexible="false"
       use_knot_distance="true"
       apply_no_radius="true"
       apply_with_radius="true"
       only_selected="false"
       hide_knots="false" />
    <inkscape:path-effect
       effect="offset"
       id="path-effect45"
       is_visible="true"
       lpeversion="1.3"
       linejoin_type="round"
       unit="mm"
       offset="-5.1"
       miter_limit="4"
       attempt_force_join="false"
       update_on_knot_move="true" />
  </defs>
  <g
     inkscape:label="Cut"
     inkscape:groupmode="layer"
     id="layer1">
    <path
       id="path2"
       style="fill:none;stroke:#000000;stroke-width:0.243984;stroke-dasharray:none"
       d="M 95.717119,14.398011 A 42.027426,49.877981 0 0 0 67.852756,26.936605 42.026419,40.73181 0 0 0 51.061213,23.544277 42.026419,40.73181 0 0 0 9.0347264,64.276021 42.026419,40.73181 0 0 0 51.061213,105.00776 a 42.026419,40.73181 0 0 0 16.791543,-3.39233 42.027426,49.877981 0 0 0 27.864363,12.5386 42.027426,49.877981 0 0 0 29.811371,-14.735957 42.038203,40.731797 0 0 0 21.2239,5.589687 42.038203,40.731797 0 0 0 42.03835,-40.731739 42.038203,40.731797 0 0 0 -42.03835,-40.731744 42.038203,40.731797 0 0 0 -21.2239,5.589384 42.027426,49.877981 0 0 0 -29.811371,-14.73565 z" />
  </g>
  <g
     inkscape:groupmode="layer"
     id="layer2"
     inkscape:label="Engrave"
     style="display:inline">
    <path
       id="path2-9"
       style="fill:none;stroke:#ff0000;stroke-width:0.4;stroke-dasharray:none"
       d="m 144.05078,24.486328 c -12.91905,1.9e-5 -25.67261,6.043723 -36.12109,18.056641 l -4.93164,5.669922 -6.820316,-3.152344 C 89.173525,41.824184 81.653657,40.167915 74.054687,40.167969 43.406532,40.167917 18.187552,66.530307 18.1875,100 c 5.5e-5,33.46966 25.219124,59.83208 55.867187,59.83203 7.599059,5e-5 15.118839,-1.65621 22.123047,-4.89258 l 6.820316,-3.15234 4.93164,5.66992 c 10.44848,12.01292 23.20194,18.05662 36.125,18.05664 14.08768,-0.006 27.97725,-7.21168 38.77929,-21.33594 l 5.51758,-7.21484 7.71485,4.79102 c 8.54027,5.30437 18.18249,8.07055 27.99609,8.07812 30.65224,1.1e-4 55.87886,-26.36389 55.87891,-59.83203 -5e-5,-33.468116 -25.22679,-59.832147 -55.88672,-59.832031 -9.80571,0.0074 -19.44776,2.773773 -27.98828,8.078125 l -7.71485,4.791015 -5.51758,-7.214843 C 172.03183,31.698111 158.14231,24.491947 144.05078,24.486328 Z"
       inkscape:path-effect="#path-effect2"
       inkscape:original-d="M 144.05529,14.476119 A 65.879623,85.523933 0 0 0 100.37682,35.975582 65.878044,69.841331 0 0 0 74.055428,30.158883 65.878044,69.841331 0 0 0 8.1772786,100.0001 a 65.878044,69.841331 0 0 0 65.8781494,69.84121 65.878044,69.841331 0 0 0 26.321392,-5.8167 65.879623,85.523933 0 0 0 43.67847,21.49947 65.879623,85.523933 0 0 0 46.73048,-25.2672 65.896515,69.841309 0 0 0 33.26929,9.58443 65.896515,69.841309 0 0 0 65.89675,-69.84121 65.896515,69.841309 0 0 0 -65.89675,-69.841217 65.896515,69.841309 0 0 0 -33.26929,9.583911 65.879623,85.523933 0 0 0 -46.73048,-25.266675 z"
       transform="matrix(0.63794273,0,0,0.58320497,3.2213238,5.9555252)" />
  </g>
  <g
     inkscape:groupmode="layer"
     id="layer4"
     inkscape:label="Engrave2"
     style="display:inline">
    <path
       id="path2-4"
       style="display:inline;fill:none;stroke:#ff0000;stroke-width:0.4;stroke-dasharray:none"
       d="m 144.05273,20.486328 c -14.1876,2.1e-5 -28.05301,6.683896 -39.14062,19.431641 l -2.96094,3.404297 -4.095701,-1.892579 C 90.332135,37.953458 82.23656,36.167911 74.054687,36.167969 41.114711,36.167913 14.187555,64.491303 14.1875,100 c 5.8e-5,35.50868 26.927267,63.83209 59.867187,63.83203 8.181926,6e-5 16.277448,-1.78549 23.800782,-5.26172 l 4.095701,-1.89258 2.96094,3.4043 c 11.08761,12.74775 24.95257,19.43162 39.14258,19.43164 15.47015,-0.006 30.53118,-7.96633 41.95703,-22.90625 l 3.3125,-4.33203 4.63281,2.87695 c 9.15984,5.6892 19.53585,8.67154 30.10156,8.67969 32.94653,1.2e-4 59.88277,-28.32425 59.88282,-63.83203 -5e-5,-35.507771 -26.93558,-63.832156 -59.88672,-63.832031 -10.56096,0.008 -20.9396,2.990584 -30.09961,8.679687 l -4.63086,2.876953 -3.3125,-4.332031 c -11.42595,-14.93978 -26.48655,-22.90008 -41.95899,-22.90625 z"
       inkscape:path-effect="#path-effect3"
       inkscape:original-d="M 144.05529,14.476119 A 65.879623,85.523933 0 0 0 100.37682,35.975582 65.878044,69.841331 0 0 0 74.055428,30.158883 65.878044,69.841331 0 0 0 8.1772786,100.0001 a 65.878044,69.841331 0 0 0 65.8781494,69.84121 65.878044,69.841331 0 0 0 26.321392,-5.8167 65.879623,85.523933 0 0 0 43.67847,21.49947 65.879623,85.523933 0 0 0 46.73048,-25.2672 65.896515,69.841309 0 0 0 33.26929,9.58443 65.896515,69.841309 0 0 0 65.89675,-69.84121 65.896515,69.841309 0 0 0 -65.89675,-69.841217 65.896515,69.841309 0 0 0 -33.26929,9.583911 65.879623,85.523933 0 0 0 -46.73048,-25.266675 z"
       transform="matrix(0.63794273,0,0,0.58320497,3.2213238,5.9555252)" />
    <path
       id="path2-1"
       style="fill:none;stroke:#ff0000;stroke-width:0.4;stroke-dasharray:none"
       d="m 144.05078,26.486328 c -12.28477,1.9e-5 -24.48241,5.723636 -34.61133,17.369141 l -5.91601,6.802734 -8.183596,-3.78125 C 88.595197,43.760524 81.362206,42.167917 74.054687,42.167969 44.552443,42.167919 20.18755,67.549809 20.1875,100 c 5.3e-5,32.45015 24.365052,57.83208 53.867187,57.83203 7.307625,5e-5 14.540511,-1.59255 21.285157,-4.70898 l 8.183596,-3.78125 5.91601,6.80273 c 10.12892,11.64551 22.32565,17.36912 34.61524,17.36914 13.39645,-0.005 26.70126,-6.83631 37.1914,-20.55273 l 6.61914,-8.6543 9.25586,5.74805 c 8.23049,5.11197 17.50583,7.77006 26.94336,7.77734 29.5051,1.1e-4 53.87691,-25.38371 53.87696,-57.83203 -4e-5,-32.448289 -24.3724,-57.832143 -53.88672,-57.832031 -9.42809,0.0072 -18.70282,2.665368 -26.9336,7.777343 l -9.25586,5.748047 -6.61914,-8.654297 C 170.75583,33.322721 157.45185,26.491672 144.05078,26.486328 Z"
       inkscape:path-effect="#path-effect4"
       inkscape:original-d="M 144.05529,14.476119 A 65.879623,85.523933 0 0 0 100.37682,35.975582 65.878044,69.841331 0 0 0 74.055428,30.158883 65.878044,69.841331 0 0 0 8.1772786,100.0001 a 65.878044,69.841331 0 0 0 65.8781494,69.84121 65.878044,69.841331 0 0 0 26.321392,-5.8167 65.879623,85.523933 0 0 0 43.67847,21.49947 65.879623,85.523933 0 0 0 46.73048,-25.2672 65.896515,69.841309 0 0 0 33.26929,9.58443 65.896515,69.841309 0 0 0 65.89675,-69.84121 65.896515,69.841309 0 0 0 -65.89675,-69.841217 65.896515,69.841309 0 0 0 -33.26929,9.583911 65.879623,85.523933 0 0 0 -46.73048,-25.266675 z"
       transform="matrix(0.63794273,0,0,0.58320497,3.2213238,5.9555252)" />
  </g>
  <metadata
     id="metadata45">
    <rdf:RDF>
      <cc:Work
         rdf:about="">
        <cc:license
           rdf:resource="http://creativecommons.org/publicdomain/zero/1.0/" />
      </cc:Work>
      <cc:License
         rdf:about="http://creativecommons.org/publicdomain/zero/1.0/">
        <cc:permits
           rdf:resource="http://creativecommons.org/ns#Reproduction" />
        <cc:permits
           rdf:resource="http://creativecommons.org/ns#Distribution" />
        <cc:permits
           rdf:resource="http://creativecommons.org/ns#DerivativeWorks" />
      </cc:License>
    </rdf:RDF>
  </metadata>
</svg>
