<?xml version='1.0' encoding='UTF-8'?>
<!-- Created with Inkscape (http://www.inkscape.org/) -->
<!--
WARNING: AUTO-GENERATED FILE - START
=============================================================================
Generated from source_templates/hand_drawn_ellipse.svg by generation_scripts/generate_images.py
DO NOT EDIT THIS FILE DIRECTLY
IT WILL BE OVERWRITTEN ON NEXT GENERATION
=============================================================================
WARNING: AUTO-GENERATED FILE - END
-->
<svg xmlns:inkscape="http://www.inkscape.org/namespaces/inkscape" xmlns:sodipodi="http://sodipodi.sourceforge.net/DTD/sodipodi-0.dtd" xmlns="http://www.w3.org/2000/svg" xmlns:svg="http://www.w3.org/2000/svg" xmlns:rdf="http://www.w3.org/1999/02/22-rdf-syntax-ns#" xmlns:cc="http://creativecommons.org/ns#" width="200mm" height="120mm" viewBox="0 0 200 120" version="1.1" id="svg1" inkscape:version="1.4.2 (ebf0e94, 2025-05-08)" sodipodi:docname="hand_drawn_ellipse.svg">
  <sodipodi:namedview id="namedview1" pagecolor="#ffffff" bordercolor="#000000" borderopacity="0.25" inkscape:showpageshadow="2" inkscape:pageopacity="0.0" inkscape:pagecheckerboard="true" inkscape:deskcolor="#d1d1d1" inkscape:document-units="mm" inkscape:zoom="0.5" inkscape:cx="378" inkscape:cy="393" inkscape:window-width="2400" inkscape:window-height="1261" inkscape:window-x="3591" inkscape:window-y="-9" inkscape:window-maximized="1" inkscape:current-layer="svg1"/>
  <defs id="defs1">
    <inkscape:path-effect effect="roughen" id="path-effect3" is_visible="true" lpeversion="1.2" global_randomize="1;1" displace_x="1.70126;1" displace_y="1.14997;1" method="size" max_segment_size="3.44992" segments="2" handles="along" shift_nodes="true" fixed_displacement="false" spray_tool_friendly="false"/>
    <inkscape:path-effect effect="roughen" id="path-effect2" is_visible="true" lpeversion="1.2" global_randomize="1.9;1" displace_x="1.56779;1" displace_y="1.1;1" method="size" max_segment_size="3.04953" segments="2" handles="along" shift_nodes="true" fixed_displacement="false" spray_tool_friendly="false"/>
    <inkscape:path-effect effect="offset" id="path-effect1" is_visible="true" lpeversion="1.3" linejoin_type="miter" unit="mm" offset="-6.3468055" miter_limit="4" attempt_force_join="false" update_on_knot_move="true"/>
    <inkscape:path-effect effect="fillet_chamfer" id="path-effect46" is_visible="true" lpeversion="1" nodesatellites_param="IC,0,0,1,0,2.6458333,0,1 @ IC,0,0,1,0,2.6458333,0,1 @ IC,0,0,1,0,2.6458333,0,1 @ IC,0,0,1,0,2.6458333,0,1 @ IC,0,0,1,0,2.6458333,0,1 @ IC,0,0,1,0,2.6458333,0,1 @ IC,0,0,1,0,2.6458333,0,1 @ IC,0,0,1,0,2.6458333,0,1 @ IC,0,0,1,0,2.6458333,0,1 @ IC,0,0,1,0,2.6458333,0,1 @ IC,0,0,1,0,2.6458333,0,1 @ IC,0,0,1,0,2.6458333,0,1 @ IC,0,0,1,0,2.6458333,0,1 @ IC,0,0,1,0,2.6458333,0,1 @ IC,0,0,1,0,2.6458333,0,1 @ IC,0,0,1,0,2.6458333,0,1 @ IC,0,0,1,0,2.6458333,0,1 @ IC,0,0,1,0,2.6458333,0,1 @ IC,0,0,1,0,2.6458333,0,1 @ IC,0,0,1,0,2.6458333,0,1 @ IC,0,0,1,0,2.6458333,0,1 @ IC,0,0,1,0,2.6458333,0,1 @ IC,0,0,1,0,2.6458333,0,1 @ IC,0,0,1,0,2.6458333,0,1 @ IC,0,0,1,0,2.6458333,0,1 @ IC,0,0,1,0,2.6458333,0,1 @ IC,0,0,1,0,2.6458333,0,1 @ IC,0,0,1,0,2.6458333,0,1 @ IC,0,0,1,0,2.6458333,0,1" radius="10" unit="px" method="auto" mode="F" chamfer_steps="1" flexible="false" use_knot_distance="true" apply_no_radius="true" apply_with_radius="true" only_selected="false" hide_knots="false"/>
    <inkscape:path-effect effect="offset" id="path-effect45" is_visible="true" lpeversion="1.3" linejoin_type="round" unit="mm" offset="-5.1" miter_limit="4" attempt_force_join="false" update_on_knot_move="true"/>
    <inkscape:path-effect effect="offset" id="path-effect1-4" is_visible="true" lpeversion="1.3" linejoin_type="miter" unit="mm" offset="-6.3468055" miter_limit="4" attempt_force_join="false" update_on_knot_move="true"/>
    <inkscape:path-effect effect="roughen" id="path-effect2-3" is_visible="true" lpeversion="1.2" global_randomize="1;1" displace_x="1.56779;1" displace_y="1.01651;1" method="size" max_segment_size="3.04953" segments="2" handles="along" shift_nodes="true" fixed_displacement="false" spray_tool_friendly="false"/>
  </defs>
  <g inkscape:label="Cut" inkscape:groupmode="layer" id="layer1" sodipodi:insensitive="true">
    <path style="fill:none;stroke:#000000;stroke-width:0.4" id="path1-5" inkscape:path-effect="#path-effect3" sodipodi:type="arc" sodipodi:cx="150" sodipodi:cy="100" sodipodi:rx="127.59447" sodipodi:ry="86.247879" d="m 277.55335,99.284287 c 0,0.952663 -0.30254,2.304503 -0.34789,3.249723 -0.37063,0.72562 0.85914,2.2016 0.75577,3.23087 0.89169,1.06596 -0.44688,1.62428 -0.58548,2.55295 -0.38584,0.75683 -0.53789,1.83076 -0.73823,2.82322 -0.40679,0.79031 -0.42822,1.90109 -0.66832,2.85099 -0.24768,0.89757 -0.21734,1.91748 -0.48955,2.81908 -0.006,0.99544 -0.87392,1.44513 -1.18522,2.3307 -0.64747,0.61173 -0.19129,2.03444 -0.57235,2.97555 0.13797,1.03319 -0.7453,1.79352 -1.15106,2.68081 -0.39257,0.86807 -0.54377,1.82724 -0.97912,2.68219 -0.17304,0.96695 -0.86623,1.73637 -1.34745,2.5908 -0.44028,0.85567 -0.92645,1.69079 -1.44179,2.52494 -0.46996,0.83985 -1.4112,0.99129 -1.96585,1.81448 -0.96945,0.23158 -1.54126,1.40375 -2.19648,2.29489 -0.90523,0.42515 -0.77929,1.66329 -1.42428,2.47701 -0.2155,0.8623 -1.33428,1.70351 -2.0452,2.53493 -0.62422,0.78046 -1.28146,1.53737 -1.96644,2.28665 -0.64694,0.76938 -1.30482,1.53202 -2.02344,2.26873 -0.63884,0.77861 -0.011,1.52722 -0.76607,2.25353 0.4572,1.0083 -2.19382,1.11908 -3.2469,2.04823 -1.05722,-0.002 -1.66619,1.58564 -2.58691,2.34551 -0.7192,0.7288 -1.63763,1.40261 -2.50478,2.07672 -0.80419,0.6947 -0.86005,1.557 -1.7433,2.20479 -0.16623,0.9919 -2.0965,1.41329 -3.16675,2.1444 -0.93877,0.54498 -1.85635,1.20001 -2.8058,1.81093 -0.94667,0.56 -2.0093,1.04343 -2.98223,1.63365 -1.06705,0.41971 -2.11287,0.98923 -3.10022,1.5551 -1.14395,0.38561 -2.01754,0.69545 -3.00747,1.23285 -1.11796,0.16323 -2.19872,1.04969 -3.26858,1.59959 -1.11255,0.44608 -2.0722,1.01258 -3.1094,1.51869 -1.078,0.48771 -2.28057,0.44709 -3.34953,0.94149 -1.27021,-0.0603 -1.26875,1.20447 -2.38517,1.69569 -0.39132,0.78118 -2.44979,1.27784 -3.80984,1.83527 -0.9468,0.60174 -1.9358,1.14525 -3.12622,1.60185 -0.82851,0.6745 -1.5952,0.9997 -2.85976,1.4484 -0.52465,0.56658 -3.17941,0.62214 -4.63858,1.09089 -1.45018,-0.005 -1.94542,0.81923 -3.09044,1.163 -0.97631,0.49274 -2.87462,-0.0531 -4.19237,0.30962 -1.48671,-0.48354 -2.327,0.72033 -3.55117,1.0407 -1.16805,0.39192 -1.88582,0.66786 -3.16749,0.98233 -0.79941,0.36979 -3.15689,0.50903 -4.64173,0.8402 -1.44886,0.079 -1.99114,0.74276 -3.21787,0.99809 -0.96822,0.50217 -3.00388,0.4448 -4.442,0.70786 -1.42928,0.10318 -2.59454,0.40817 -3.86735,0.61777 -1.37193,0.17171 -2.99784,-0.2771 -4.31057,-0.0854 -1.64535,-0.51208 -2.77131,0.0843 -4.0198,0.28174 -1.55404,-0.0905 -2.90163,-0.1433 -4.17443,0.079 -1.63645,-0.3424 -2.73461,0.0884 -4.00443,0.37417 -1.46497,-0.13041 -2.71361,-0.12999 -4.03397,0.20168 -1.31664,0.33074 -2.60966,1.03729 -4.03258,1.03729 -1.40937,0 -2.77944,0.005 -4.17777,-0.0252 -1.37605,-0.0102 -1.47045,0.1087 -2.86854,0.0477 -0.49686,0.10491 -3.12416,-0.11796 -4.9447,-0.25031 -1.01061,-0.0443 -3.25685,-1.25761 -4.79969,-1.40832 -1.41885,-1.13633 -2.57278,-0.29694 -3.83248,-0.44523 -1.3614,-0.19246 -2.34111,-0.16461 -3.65294,-0.34685 -1.12831,-0.0382 -2.90052,-0.44824 -4.31509,-0.67793 -1.33804,-0.24478 -1.88186,-0.29263 -3.15873,-0.52758 -0.83079,-0.14106 -3.02701,-0.57502 -4.53087,-0.89115 -1.26633,-0.2647 -1.81077,-0.43578 -3.07318,-0.7297 -0.7599,-0.23441 -3.01452,-0.74044 -4.49018,-1.12421 -1.25454,-0.34383 -2.68828,-0.92261 -3.89679,-1.26475 -1.36306,-0.5897 -1.82097,-0.51402 -2.922403,-0.84951 -0.928267,-0.27804 -2.533884,-0.75402 -3.844446,-1.1881 -1.099556,-0.33211 -2.176036,-0.68264 -3.376086,-1.11073 -0.991402,-0.30667 -2.064343,-0.69476 -3.287755,-1.1646 -0.861865,-0.28395 -1.662312,-0.79484 -2.915469,-1.3131 -0.501765,-0.37142 -3.04118,-1.71062 -4.394826,-2.31569 -1.224366,-0.96779 -1.764254,-0.78683 -2.682858,-1.21878 -0.99832,-0.45918 -2.406038,-1.32382 -3.477948,-1.85862 -1.1677,-0.75307 -0.931108,-0.84812 -1.851388,-1.33104 -0.331161,-0.56966 -1.607898,-1.09723 -2.843532,-1.79037 -0.334744,-0.45196 -2.476694,-1.76603 -3.691927,-2.49378 -0.903061,-0.89461 -1.89396,-1.17119 -2.779069,-1.72677 -0.992783,-0.64468 -1.245827,-1.09884 -2.122369,-1.67605 -0.496694,-0.64705 -2.116569,-1.45069 -3.123466,-2.15151 -0.915601,-0.67317 -1.734747,-1.97985 -2.567577,-2.58783 -0.761217,-1.31282 -1.382659,-1.03174 -2.089604,-1.56821 -0.791705,-0.61472 -1.378567,-1.18008 -2.201783,-1.83556 -0.579824,-0.59188 -1.863533,-1.66814 -2.719982,-2.38722 -0.825745,-0.85471 -1.593691,-1.41249 -2.290396,-2.0247 -0.859551,-0.80974 -0.437518,-0.96714 -1.10646,-1.58328 2.88e-4,-0.60808 -1.96709,-1.88146 -2.862986,-2.76078 -0.771455,-0.79353 -1.461134,-1.42817 -2.093291,-2.08026 -0.788374,-0.78372 -1.25021,-1.30391 -1.851762,-1.95821 -0.655641,-0.71032 -1.233859,-1.40881 -1.849807,-2.1211 -0.583381,-0.72367 -0.948624,-1.42452 -1.543246,-2.15974 -0.34328,-0.75185 -1.586185,-2.09563 -2.183809,-2.89022 -0.776902,-1.10893 -0.887766,-1.47534 -1.304488,-2.06238 -0.508412,-0.99347 0.0072,-1.1488 -0.448768,-1.83792 0.330369,-0.73634 -1.303295,-2.66575 -1.899293,-3.64106 -0.414693,-1.33562 -0.742387,-1.31092 -1.091065,-1.90903 -0.458396,-0.86881 -0.873137,-1.51823 -1.28066,-2.27302 -0.433917,-0.79891 0.107608,-1.33042 -0.278037,-2.12734 0.46386,-0.73655 -1.103883,-2.12468 -1.569449,-3.15124 -0.485178,-0.88381 0.01724,-1.28707 -0.293821,-2.06592 0.3114,-0.71587 -0.891485,-2.03775 -1.280099,-3.06136 -0.401834,-0.87941 -0.72898,-2.51404 -0.973784,-3.33954 -0.343023,-1.58011 -0.6853,-1.58825 -0.800445,-2.12883 -0.182274,-0.85573 1.1294,-1.23918 1.1294,-2.39108 0,-0.952672 0.684383,-1.728486 0.728898,-2.673765 0.708198,-0.808624 0.275821,-1.877086 0.368776,-2.850645 0.25018,-0.863858 0.511503,-1.807014 0.645226,-2.745236 0.440609,-0.841964 0.45778,-1.742278 0.630614,-2.657798 0.347835,-0.820991 0.404913,-1.817637 0.620068,-2.731223 0.247033,-0.873226 1.298997,-1.646941 1.548932,-2.534211 1.094632,-0.701402 1.31106,-1.52776 1.582229,-2.362041 1.086864,-0.66968 1.473518,-1.632697 1.772829,-2.447504 1.197351,-0.738842 1.852612,-1.373817 2.153319,-2.114969 1.58,-0.595754 0.930809,-1.253773 1.24384,-1.962178 0.702127,-0.648495 0.94612,-1.53435 1.33941,-2.346826 0.596488,-0.70462 0.73058,-1.664783 1.151945,-2.464816 0.35293,-0.849439 0.759807,-1.773357 1.210162,-2.562789 0.341463,-0.947928 1.287637,-1.336103 1.754003,-2.094917 0.874585,-0.581186 1.084327,-1.493153 1.591067,-2.260622 0.626747,-0.7193 0.788189,-2.047516 1.330541,-2.813787 0.249362,-1.207828 0.986683,-1.47023 1.514673,-2.170027 0.544955,-0.818699 1.157284,-1.53836 1.763917,-2.289521 0.602351,-0.775694 1.047867,-1.810187 1.692264,-2.5563 0.434812,-1.026189 1.277607,-1.455024 1.937577,-2.170679 0.685225,-0.74304 1.495246,-1.422475 2.210555,-2.148096 0.82023,-0.665812 1.285083,-1.547652 2.024706,-2.250954 0.610399,-0.838371 1.827951,-1.290953 2.61975,-1.995348 1.048315,-0.527399 1.833666,-1.174814 2.618719,-1.831371 1.089772,-0.492048 2.122555,-1.071564 2.934247,-1.710865 1.313547,-0.376905 1.554419,-1.218944 2.352001,-1.813647 0.867902,-0.658129 2.987011,-1.192576 3.889032,-1.82543 1.87617,-0.35526 1.499347,-0.816818 2.164412,-1.264793 1.084572,-0.509895 1.684291,-1.300858 2.602821,-1.88634 0.844497,-0.716638 1.912025,-1.245381 2.902045,-1.838771 0.95362,-0.615575 1.97627,-1.1792 2.986365,-1.747074 1.003304,-0.576997 2.153659,-1.053426 3.189351,-1.598034 1.136568,-0.463224 2.003436,-1.105066 3.044415,-1.616914 1.027636,-0.572913 2.111782,-1.178235 3.208495,-1.679269 1.045334,-0.634781 1.989714,-1.371767 3.104578,-1.842191 0.933269,-0.868784 2.329515,-0.930416 3.493224,-1.377082 1.1862,-0.426609 2.249392,-0.894847 3.418034,-1.301912 1.142472,-0.448423 2.256734,-1.045655 3.475474,-1.42737 1.08829,-0.616969 2.37939,-0.815167 3.63664,-1.1627 1.16423,-0.411755 3.46488,-0.581868 4.75006,-0.891451 1.91289,-0.141422 1.89887,-0.591624 2.87698,-0.806025 1.23626,-0.414724 3.07375,-0.310382 4.37267,-0.555122 1.65243,0.01655 1.98972,-0.876961 3.14541,-1.071584 1.07395,-0.687766 3.85762,-0.186083 5.27309,-0.3681 2.07222,0.125203 2.04096,-0.240301 3.0302,-0.353414 1.38443,-0.143366 2.67623,-0.294013 4.01116,-0.417988 1.35644,-0.127256 2.78414,-0.227454 4.1617,-0.321746 1.40823,-0.08285 2.68326,-0.178022 4.06138,-0.240384 1.35183,-0.07016 2.90622,-0.01012 4.34055,-0.03874 1.35694,-0.02707 2.62155,-0.119326 4.0765,-0.119326 1.40937,0 2.78185,-1.042022 4.18018,-1.01138 1.39326,-1.026239 2.85492,0.08514 4.26755,0.148578 1.40176,0.0689 2.5067,-0.122144 3.88473,-0.02901 1.21163,-0.162483 3.10467,0.305768 4.56961,0.440845 1.46778,0.209351 3.11317,0.431443 4.41597,0.580464 1.67323,0.31041 2.26241,0.207585 3.43605,0.365583 1.27576,0.110664 2.66069,0.182035 4.02225,0.398039 1.27867,0.01233 2.63729,0.102872 3.98605,0.349942 1.27526,-0.09646 2.51055,0.33278 3.85387,0.612966 1.17077,0.105084 3.291,0.674807 4.64579,0.993293 1.64555,0.342524 2.25415,0.542987 3.33421,0.820411 1.30843,0.335744 2.72538,0.789012 3.94187,1.132306 1.4087,0.464318 3.32885,0.834514 4.45606,1.179964 1.92794,0.446784 1.54081,0.338677 2.40903,0.621653 1.07883,0.213757 2.54809,0.826575 3.81392,1.276958 1.17039,0.394195 2.61327,0.899171 3.78294,1.349345 1.32425,0.455036 2.57406,0.946449 3.63899,1.386063 1.41938,0.515255 3.19257,0.899273 4.17994,1.333932 1.96098,0.398484 2.34083,0.912666 3.10084,1.264509 1.64739,0.617995 2.05001,0.946697 2.87905,1.352374 1.32412,0.624987 2.61734,1.183992 3.55168,1.670947 1.54368,0.6702 1.41753,0.675392 2.2293,1.122755 0.8914,0.422777 2.96791,1.31829 4.05662,1.966247 1.5438,0.545231 1.30249,0.48543 2.09265,0.983943 0.82981,0.230791 2.03927,1.23996 3.13372,1.991864 0.81763,0.496741 2.26176,1.447796 3.25912,2.190573 1.07322,0.652627 2.53886,1.356874 3.37664,2.026693 1.51979,0.613637 1.34067,1.056897 2.02216,1.637021 0.82413,0.672052 1.85691,1.585938 2.69866,2.363758 0.89396,0.792644 1.24819,0.676457 1.99629,1.423506 0.6699,0.186812 1.9128,1.964608 2.82537,2.978185 0.72261,0.806334 1.65872,1.762808 2.34898,2.598408 0.84919,0.892092 1.45255,1.65708 2.04959,2.44098 0.80334,0.901663 0.96709,1.393539 1.52854,2.195795 0.44318,0.7487 1.40385,1.949182 2.01046,2.907404 0.6484,0.903414 1.02213,1.668854 1.51446,2.521581 0.49348,0.873988 1.34537,1.934671 1.8175,2.838082 0.76199,0.957416 1.42812,1.624839 1.81414,2.441089 0.9975,0.840746 0.50227,1.28806 0.85334,2.131133 0.17792,0.677363 0.95766,2.180782 1.34055,3.264291 0.42163,0.944931 0.97006,1.983003 1.24658,2.893128 0.61328,1.026225 0.77658,1.718708 0.99289,2.569306 0.51673,0.94031 1.12353,2.07675 1.30545,2.996152 0.85314,1.093095 0.24063,1.549013 0.34989,2.392479 0.0677,0.862797 0.18612,1.714958 0.25409,2.725927 0.0303,0.728837 0.0908,1.575679 0.11638,2.630782 0.004,0.562919 -0.0195,2.123674 -0.0187,3.253542 -0.0542,0.894221 0.34387,1.980945 0.34429,2.933921 0.34307,1.033448 0.0914,1.919641 0.009,2.817013 -0.0883,0.9613 -0.39157,1.119594 -0.39157,2.042401 z" transform="matrix(0.69973071,0,0,0.57567763,-5.1664292,2.94001)"/>
  </g>
  <g inkscape:groupmode="layer" id="layer7" inkscape:label="Contents" inkscape:highlight-color="#ff0000"/>
  <metadata id="metadata45">
    <rdf:RDF>
      <cc:Work rdf:about="">
        <cc:license rdf:resource="http://creativecommons.org/publicdomain/zero/1.0/"/>
      </cc:Work>
      <cc:License rdf:about="http://creativecommons.org/publicdomain/zero/1.0/">
        <cc:permits rdf:resource="http://creativecommons.org/ns#Reproduction"/>
        <cc:permits rdf:resource="http://creativecommons.org/ns#Distribution"/>
        <cc:permits rdf:resource="http://creativecommons.org/ns#DerivativeWorks"/>
      </cc:License>
    </rdf:RDF>
  </metadata>
</svg>
